<svg xmlns="http://www.w3.org/2000/svg" width="527.281" height="545.758" viewBox="0 0 527.281 545.758">
  <g id="Group_69953" data-name="Group 69953" transform="translate(-750.446 -849.425)">
    <g id="Group_66731" data-name="Group 66731" transform="translate(965.703 1225.254)">
      <path id="Path_264" data-name="Path 264" d="M414.933,427.808l-35.107-4.265,4.293-35.055,35.141,4.242c-1.462,11.845-2.864,23.2-4.328,35.078" transform="translate(-200.121 -313.485)" fill="#d6b05a"/>
      <path id="Path_265" data-name="Path 265" d="M356.732,434.383c-8.253,8.864-15.837,17.01-24.123,25.908-8.527-7.9-16.924-15.684-25.919-24.018,7.992-8.634,15.769-17.038,24.02-25.954l26.021,24.064" transform="translate(-277.586 -290.362)" fill="#d6b05a"/>
      <path id="Path_266" data-name="Path 266" d="M292.556,415.02c6.658-7.121,12.783-13.671,19.344-20.691l20.866,19.193c-6.4,6.9-12.606,13.591-19.311,20.818-6.913-6.392-13.6-12.579-20.9-19.321" transform="translate(-292.556 -307.299)" fill="#d6b05a"/>
      <path id="Path_267" data-name="Path 267" d="M365.1,413.05l-19.28,20.771c-7.108-6.579-13.782-12.757-20.87-19.315,6.565-7.037,12.752-13.671,19.342-20.736,7.022,6.507,13.7,12.695,20.808,19.279" transform="translate(-258.245 -307.889)" fill="#d6b05a"/>
      <path id="Path_268" data-name="Path 268" d="M385.751,416.608l-28.2-3.408c1.188-9.456,2.312-18.41,3.526-28.042,9.552,1.145,18.384,2.206,28.089,3.371-1.135,9.318-2.225,18.28-3.416,28.079" transform="translate(-223.714 -317.012)" fill="#d6b05a"/>
      <path id="Path_269" data-name="Path 269" d="M335.979,370.68c5.612,5.251,10.691,10.007,16.089,15.059-5.021,5.4-9.74,10.475-14.985,16.117l-16.255-14.995c5.251-5.61,10.119-10.807,15.151-16.181" transform="translate(-262.611 -332.347)" fill="#d6b05a"/>
      <path id="Path_270" data-name="Path 270" d="M361.239,405.146l-21.807-2.615c.793-7.217,1.54-14.025,2.391-21.757,7.329.814,14.147,1.57,21.9,2.428-.828,7.312-1.6,14.128-2.479,21.945" transform="translate(-242.906 -321.655)" fill="#d6b05a"/>
      <path id="Path_271" data-name="Path 271" d="M341.979,398.667l-15.055,16.117c-5.42-5-10.653-9.831-16.208-14.956,5.084-5.492,9.938-10.732,15.04-16.247l16.222,15.086" transform="translate(-273.32 -318.681)" fill="#d6b05a"/>
      <path id="Path_272" data-name="Path 272" d="M364.676,388.89c1-7.689,1.866-14.367,2.817-21.7l21.811,2.451c-.9,7.347-1.734,14.2-2.671,21.878l-21.956-2.629" transform="translate(-216.169 -336.043)" fill="#d6b05a"/>
      <path id="Path_273" data-name="Path 273" d="M348.9,364.792c7.678,1,14.365,1.869,21.893,2.85-.846,7.151-1.653,13.994-2.557,21.654l-21.807-2.462c.83-7.405,1.6-14.264,2.471-22.041" transform="translate(-235.491 -338.583)" fill="#d6b05a"/>
      <path id="Path_274" data-name="Path 274" d="M335.735,360.967l15.235,2.129c-.6,5.07-1.15,9.73-1.786,15.122l-15.427-1.754c.686-5.362,1.3-10.2,1.979-15.5" transform="translate(-248.918 -342.635)" fill="#d6b05a"/>
      <path id="Path_275" data-name="Path 275" d="M369.867,353.876c-.659,5.461-1.221,10.158-1.851,15.39l-15.2-1.944c.583-5.177,1.11-9.857,1.715-15.258l15.335,1.812" transform="translate(-228.73 -352.064)" fill="#d6b05a"/>
      <path id="Path_276" data-name="Path 276" d="M333.632,374.621c-3.529,3.848-6.746,7.355-10.448,11.389-3.857-3.511-7.489-6.818-11.472-10.445,3.608-3.891,6.851-7.392,10.549-11.378,3.785,3.47,7.384,6.775,11.371,10.434" transform="translate(-272.267 -339.224)" fill="#d6b05a"/>
    </g>
    <g id="Group_66730" data-name="Group 66730" transform="translate(750.446 849.425)">
      <path id="Path_230" data-name="Path 230" d="M400.3,351.228c8.627-4.712,16.475-9,24.914-13.6,4.551,8.255,8.948,16.229,13.677,24.806-8.329,4.578-16.306,8.96-24.891,13.677-4.6-8.352-9-16.335-13.7-24.879" transform="translate(36.819 8.47)" fill="rgba(63,99,182,0.16)"/>
      <path id="Path_231" data-name="Path 231" d="M452.009,298.259c-11.037-5.263-21.263-10.139-31.966-15.246,5.131-10.741,10.09-21.117,15.229-31.874l31.942,15.155c-5.088,10.691-10,21.028-15.205,31.965" transform="translate(57.731 -83.131)" fill="rgba(63,99,182,0.16)"/>
      <path id="Path_232" data-name="Path 232" d="M451.752,325.495c5.733,10.374,11.191,20.256,17.089,30.931l-31.05,17.039c-5.756-10.44-11.282-20.46-17.078-30.978l31.04-16.992" transform="translate(58.44 -4.376)" fill="rgba(63,99,182,0.16)"/>
      <path id="Path_233" data-name="Path 233" d="M434.88,306.761c4.7,8.535,9.009,16.366,13.691,24.871-8.267,4.541-16.259,8.931-24.87,13.663L410.02,320.485c8.263-4.564,16.236-8.963,24.86-13.724" transform="translate(47.115 -24.219)" fill="rgba(63,99,182,0.16)"/>
      <path id="Path_234" data-name="Path 234" d="M399.436,269.564l12.143-25.579,25.7,12.108c-4.179,8.758-8.086,16.949-12.2,25.579-8.716-4.114-16.76-7.914-25.643-12.108" transform="translate(35.905 -90.709)" fill="rgba(63,99,182,0.16)"/>
      <path id="Path_235" data-name="Path 235" d="M435.29,312.407l-25.639-12.195c4.046-8.523,7.946-16.739,12.137-25.563l25.669,12.1c-4.03,8.5-7.9,16.673-12.168,25.657" transform="translate(46.724 -58.229)" fill="rgba(63,99,182,0.16)"/>
      <path id="Path_236" data-name="Path 236" d="M416.159,291.347c-3.26,6.862-6.221,13.1-9.453,19.9l-20.019-9.372c3.152-6.6,6.175-12.921,9.5-19.887,6.7,3.143,12.932,6.06,19.97,9.357" transform="translate(22.401 -50.455)" fill="rgba(63,99,182,0.16)"/>
      <path id="Path_237" data-name="Path 237" d="M394.6,285.257c3.208-6.759,6.248-13.156,9.478-19.96l19.974,9.473c-3.138,6.581-6.1,12.8-9.443,19.809-6.676-3.111-13.076-6.093-20.009-9.321" transform="translate(30.788 -68.136)" fill="rgba(63,99,182,0.16)"/>
      <path id="Path_238" data-name="Path 238" d="M396.787,336.786c-3.6-6.5-6.931-12.54-10.671-19.307,6.357-3.5,12.528-6.906,19.294-10.636,3.606,6.453,6.964,12.462,10.774,19.278l-19.4,10.665" transform="translate(21.797 -24.131)" fill="rgba(63,99,182,0.16)"/>
      <path id="Path_239" data-name="Path 239" d="M414.594,320.492c3.579,6.521,6.9,12.573,10.562,19.239-6.464,3.612-12.479,6.972-19.268,10.767l-10.677-19.352c6.529-3.589,12.728-6.994,19.383-10.654" transform="translate(31.43 -9.675)" fill="rgba(63,99,182,0.16)"/>
      <path id="Path_240" data-name="Path 240" d="M409.051,293.584c7.024,3.346,13.111,6.245,19.894,9.478-3.159,6.676-6.188,13.07-9.421,19.9l-19.99-9.426c3.155-6.614,6.184-12.961,9.518-19.954" transform="translate(36.009 -38.175)" fill="rgba(63,99,182,0.16)"/>
      <path id="Path_241" data-name="Path 241" d="M392.952,316.523c-4.969-2.413-9.206-4.473-13.98-6.789,2.241-4.66,4.277-8.9,6.622-13.778l14.07,6.491c-2.28,4.779-4.3,9.023-6.713,14.076" transform="translate(14.23 -35.663)" fill="rgba(63,99,182,0.16)"/>
      <path id="Path_242" data-name="Path 242" d="M382.975,275.113c4.71,2.231,8.984,4.254,14.072,6.666-2.22,4.642-4.314,9.019-6.691,13.994-4.67-2.22-8.916-4.242-13.938-6.631,2.181-4.668,4.249-9.087,6.556-14.029" transform="translate(11.526 -57.739)" fill="rgba(63,99,182,0.16)"/>
      <path id="Path_243" data-name="Path 243" d="M389.911,317.006l7.493,13.589-13.464,7.46-7.572-13.465,13.543-7.584" transform="translate(11.472 -13.368)" fill="rgba(63,99,182,0.16)"/>
      <path id="Path_244" data-name="Path 244" d="M237.142,397.887,271.95,390.9c2.352,11.832,4.547,22.892,6.867,34.58l-34.574,7.032c-2.329-11.358-4.6-22.424-7.1-34.621" transform="translate(-135.991 64.895)" fill="rgba(63,99,182,0.16)"/>
      <path id="Path_245" data-name="Path 245" d="M222.751,377.213c-10.912-4.95-21.38-9.7-32.263-14.638,4.957-10.847,9.736-21.311,14.692-32.16C216,335.331,226.266,340,237.367,345.051c-4.892,10.765-9.62,21.166-14.616,32.161" transform="translate(-185.406 0.834)" fill="rgba(63,99,182,0.16)"/>
      <path id="Path_246" data-name="Path 246" d="M236.338,286.283c-10.359,5.9-20.192,11.5-30.778,17.523-5.91-10.346-11.614-20.328-17.54-30.7,10.242-5.844,20.11-11.472,30.741-17.538,5.862,10.242,11.556,20.19,17.577,30.715" transform="translate(-188.02 -78.44)" fill="rgba(63,99,182,0.16)"/>
      <path id="Path_247" data-name="Path 247" d="M241.607,379.26,215.789,367.5c4.013-8.788,7.8-17.079,11.768-25.776l25.808,11.764c-3.978,8.722-7.753,17-11.758,25.774" transform="translate(-158.608 12.811)" fill="rgba(63,99,182,0.16)"/>
      <path id="Path_248" data-name="Path 248" d="M270.031,396.1c-9.731,1.913-18.467,3.63-27.819,5.472-1.917-9.479-3.717-18.372-5.593-27.651l27.729-5.626c1.87,9.141,3.68,18.006,5.683,27.805" transform="translate(-136.545 40.961)" fill="rgba(63,99,182,0.16)"/>
      <path id="Path_249" data-name="Path 249" d="M230.93,348.721l-25.861-11.716c3.855-8.489,7.592-16.721,11.69-25.74,8.568,3.832,16.838,7.533,25.88,11.575-3.867,8.548-7.6,16.793-11.708,25.882" transform="translate(-169.962 -19.448)" fill="rgba(63,99,182,0.16)"/>
      <path id="Path_250" data-name="Path 250" d="M203.69,292.75l24.671-14.05c4.765,8.276,9.215,16.006,14.153,24.581-8.148,4.645-16.167,9.217-24.657,14.06-4.74-8.229-9.194-15.957-14.167-24.59" transform="translate(-171.423 -53.94)" fill="rgba(63,99,182,0.16)"/>
      <path id="Path_251" data-name="Path 251" d="M244.441,353.559l-20.093-9.2c3.054-6.694,5.918-12.971,9.12-19.987,6.746,3.044,13.2,5.958,20.089,9.067-3.044,6.715-5.9,13.012-9.116,20.118" transform="translate(-149.543 -5.562)" fill="rgba(63,99,182,0.16)"/>
      <path id="Path_252" data-name="Path 252" d="M281.215,372.565l-21.6,4.33c-1.474-7.289-2.87-14.2-4.357-21.545l21.547-4.417c1.473,7.217,2.883,14.136,4.413,21.632" transform="translate(-116.807 22.567)" fill="rgba(63,99,182,0.16)"/>
      <path id="Path_253" data-name="Path 253" d="M239.853,349.912c3.031-6.693,5.883-12.987,9.075-20.034,6.777,3.056,13.2,5.949,20.145,9.081l-9.159,20.081-20.061-9.128" transform="translate(-133.12 0.268)" fill="rgba(63,99,182,0.16)"/>
      <path id="Path_254" data-name="Path 254" d="M237.461,368.869c3.151-6.933,6-13.2,9.141-20.112,6.76,3.1,13.152,6.025,20.067,9.192-3.132,6.873-5.994,13.158-9.11,20.007l-20.1-9.087" transform="translate(-135.654 20.262)" fill="rgba(63,99,182,0.16)"/>
      <path id="Path_255" data-name="Path 255" d="M241.153,307.581l20.06,9.121c-3.041,6.7-5.9,12.977-9.108,20.046-6.779-3.074-13.218-5.992-20.13-9.126,3.048-6.653,5.92-12.928,9.178-20.04" transform="translate(-141.464 -23.35)" fill="rgba(63,99,182,0.16)"/>
      <path id="Path_256" data-name="Path 256" d="M233.444,298.967l-10.959-19.208c6.476-3.674,12.668-7.191,19.2-10.893,3.68,6.412,7.131,12.433,10.924,19.045-6.39,3.686-12.355,7.127-19.16,11.056" transform="translate(-151.516 -64.356)" fill="rgba(63,99,182,0.16)"/>
      <path id="Path_257" data-name="Path 257" d="M261.949,301.532c-6.626,3.773-12.464,7.1-19.212,10.938-3.657-6.381-7.154-12.487-10.93-19.074,6.371-3.678,12.361-7.14,19.146-11.056,3.608,6.3,7.125,12.436,11,19.191" transform="translate(-141.642 -50.083)" fill="rgba(63,99,182,0.16)"/>
      <path id="Path_258" data-name="Path 258" d="M239.076,325.4c-7.048-3.245-13.356-6.151-20.1-9.258,3.145-6.853,6.031-13.154,9.18-20.017,6.758,3.091,13.055,5.974,20.025,9.163-3.048,6.734-5.9,13.028-9.1,20.112" transform="translate(-155.237 -35.485)" fill="rgba(63,99,182,0.16)"/>
      <path id="Path_259" data-name="Path 259" d="M280.661,369.07c1.505,7.734,2.755,14.142,4.155,21.331-7.044,1.511-13.773,2.957-21.375,4.59-1.51-7.141-2.967-14.033-4.58-21.665l21.8-4.256" transform="translate(-112.989 41.777)" fill="rgba(63,99,182,0.16)"/>
      <path id="Path_260" data-name="Path 260" d="M243.744,311.76c2.226-4.868,4.2-9.173,6.458-14.118,4.732,2.168,9.12,4.18,14.074,6.454-2.22,4.884-4.164,9.152-6.385,14.041-4.705-2.123-8.974-4.044-14.147-6.377" transform="translate(-128.999 -33.876)" fill="rgba(63,99,182,0.16)"/>
      <path id="Path_261" data-name="Path 261" d="M275.523,370.788c-1.123-5.521-2.025-9.962-3.062-15.071l15.125-3.138c1.07,5.162,1.991,9.608,3.134,15.125-4.94,1-9.724,1.973-15.2,3.085" transform="translate(-98.583 24.31)" fill="rgba(63,99,182,0.16)"/>
      <path id="Path_262" data-name="Path 262" d="M267.266,324.806c-2.251,4.886-4.223,9.176-6.447,14-4.777-2.156-9.225-4.159-14.138-6.377,2.2-4.771,4.164-9.039,6.452-14.006l14.134,6.379" transform="translate(-125.888 -11.862)" fill="rgba(63,99,182,0.16)"/>
      <path id="Path_263" data-name="Path 263" d="M260.863,355.7c-1.015-5.313-1.9-9.935-2.879-15.065l14.882-3.222c1.073,5.02,2.1,9.806,3.254,15.2L260.863,355.7" transform="translate(-113.916 8.253)" fill="rgba(63,99,182,0.16)"/>
      <path id="Path_277" data-name="Path 277" d="M271.234,199.872c-1.334,12.209-2.549,23.306-3.842,35.144L232.244,231.2c1.264-11.772,2.473-23.021,3.762-35.02l35.228,3.694" transform="translate(-141.179 -141.344)" fill="rgba(63,99,182,0.16)"/>
      <path id="Path_278" data-name="Path 278" d="M411.856,192.656c2.158,11.727,4.172,22.672,6.384,34.678-11.4,2.146-22.661,4.265-34.763,6.54-2.138-11.591-4.211-22.838-6.409-34.761,11.738-2.178,22.818-4.238,34.788-6.457" transform="translate(12.214 -145.075)" fill="rgba(63,99,182,0.16)"/>
      <path id="Path_279" data-name="Path 279" d="M330.32,219.533c-9.011-8.356-17.311-16.055-25.979-24.094l24.115-25.89L354.4,193.6c-8.026,8.642-15.829,17.046-24.078,25.929" transform="translate(-64.817 -169.549)" fill="rgba(63,99,182,0.16)"/>
      <path id="Path_280" data-name="Path 280" d="M382.866,200.354c1.767,9.48,3.4,18.24,5.191,27.852l-27.84,5.17c-1.745-9.155-3.437-18.049-5.293-27.782l27.941-5.241" transform="translate(-11.239 -136.921)" fill="rgba(63,99,182,0.16)"/>
      <path id="Path_281" data-name="Path 281" d="M260.988,253.859c-10.071-1.1-18.907-2.059-28.244-3.078,1.032-9.495,2-18.326,3.054-28.06l28.151,2.936c-.995,9.482-1.94,18.473-2.961,28.2" transform="translate(-140.65 -113.231)" fill="rgba(63,99,182,0.16)"/>
      <path id="Path_282" data-name="Path 282" d="M258.37,231.072c1.031-9.581,1.983-18.424,3.029-28.133l28.178,2.957c-1,9.437-1.95,18.43-2.974,28.1l-28.233-2.928" transform="translate(-113.508 -134.182)" fill="rgba(63,99,182,0.16)"/>
      <path id="Path_283" data-name="Path 283" d="M290.836,207.073l19.733-17.517c4.783,5.512,10.759,12.394,17.153,19.76-5.694,4.926-12.59,10.9-20.137,17.429l-16.749-19.671" transform="translate(-79.121 -148.358)" fill="rgba(63,99,182,0.16)"/>
      <path id="Path_284" data-name="Path 284" d="M361.237,210.281c-5.467,4.74-12.227,10.6-19.681,17.071L322.22,208.881c7.065-6.554,13.764-12.771,21.15-19.626,5.379,6.33,11.175,13.152,17.867,21.026" transform="translate(-45.88 -148.677)" fill="rgba(63,99,182,0.16)"/>
      <path id="Path_285" data-name="Path 285" d="M312.25,216.266,325.5,230.83l-15.341,13.679c-3.8-3.62-8.834-8.414-14.624-13.932l16.716-14.311" transform="translate(-74.144 -120.068)" fill="rgba(63,99,182,0.16)"/>
      <path id="Path_286" data-name="Path 286" d="M279.171,226.56c-.787,7.557-1.5,14.406-2.292,21.992-7.254-.743-14.089-1.441-21.835-2.232.682-7.129,1.332-13.924,2.082-21.747,7.255.653,14.068,1.266,22.046,1.987" transform="translate(-117.03 -111.269)" fill="rgba(63,99,182,0.16)"/>
      <path id="Path_287" data-name="Path 287" d="M366.523,247.476c-1.4-7.5-2.667-14.295-4.04-21.64,7.258-1.345,14.045-2.6,21.637-4.013,1.377,7.217,2.665,13.973,4.11,21.561l-21.707,4.092" transform="translate(-3.235 -114.182)" fill="rgba(63,99,182,0.16)"/>
      <path id="Path_288" data-name="Path 288" d="M346.6,230.159l21.8-4.04c1.314,7.322,2.533,14.128,3.876,21.621-7.342,1.349-14.1,2.59-21.525,3.958-1.416-7.357-2.722-14.12-4.151-21.539" transform="translate(-20.053 -109.632)" fill="rgba(63,99,182,0.16)"/>
      <path id="Path_289" data-name="Path 289" d="M304.18,212.616c-.7,7.39-1.342,14.231-2.067,21.932-7.357-.756-14.361-1.476-22.033-2.263.782-7.331,1.511-14.165,2.329-21.807l21.771,2.137" transform="translate(-90.513 -126.197)" fill="rgba(63,99,182,0.16)"/>
      <path id="Path_290" data-name="Path 290" d="M321.451,231.4c5.926-5.082,11.212-9.616,16.827-14.431l14.95,14.221c-5.805,4.645-11.331,9.069-17.373,13.9l-14.4-13.691" transform="translate(-46.694 -119.325)" fill="rgba(63,99,182,0.16)"/>
      <path id="Path_291" data-name="Path 291" d="M275.6,226.451l22.008,2.189c-.84,7.551-1.606,14.424-2.444,21.932l-21.771-2.354c.739-7.3,1.433-14.128,2.207-21.768" transform="translate(-97.595 -109.28)" fill="rgba(63,99,182,0.16)"/>
      <path id="Path_292" data-name="Path 292" d="M276.489,265.036l-21.868-2.283c.764-7.269,1.505-14.274,2.306-21.9,7.409.809,14.247,1.555,21.848,2.386-.767,7.312-1.483,14.14-2.286,21.792" transform="translate(-117.479 -94.022)" fill="rgba(63,99,182,0.16)"/>
      <path id="Path_293" data-name="Path 293" d="M339.913,219.2l-16.394,14.865L308.334,219.65c5.091-5.338,9.983-10.469,15.2-15.94,5.364,5.072,10.407,9.843,16.382,15.493" transform="translate(-60.587 -133.367)" fill="rgba(63,99,182,0.16)"/>
      <path id="Path_294" data-name="Path 294" d="M336.089,222.46c5.531-4.724,10.36-8.86,15.207-12.973a24.246,24.246,0,0,1,2.4-1.476c4.5,5.152,9.083,10.4,14.076,16.111-4.227,4.444-9.122,9.586-14.266,14.991L336.089,222.46" transform="translate(-31.19 -128.811)" fill="rgba(63,99,182,0.16)"/>
      <path id="Path_295" data-name="Path 295" d="M286.072,259.858l-15.235-1.808c.447-5.049.877-9.884,1.346-15.174l15.385,1.5c-.489,5.063-.954,9.88-1.5,15.485" transform="translate(-100.304 -91.883)" fill="rgba(63,99,182,0.16)"/>
      <path id="Path_296" data-name="Path 296" d="M352.327,244.574c5.2-.93,9.843-1.762,15.316-2.743.909,5.031,1.736,9.623,2.7,14.968-4.977,1.024-9.583,1.969-14.943,3.071-1.036-5.167-2-9.948-3.07-15.3" transform="translate(-13.991 -92.99)" fill="rgba(63,99,182,0.16)"/>
      <path id="Path_297" data-name="Path 297" d="M289.532,248.919c.624-5.434,1.139-9.911,1.763-15.324,5,.461,9.822.9,15.248,1.4-.5,5.208-.953,9.827-1.472,15.168l-15.539-1.246" transform="translate(-80.502 -101.714)" fill="rgba(63,99,182,0.16)"/>
      <path id="Path_298" data-name="Path 298" d="M354.506,242.132l-11.322,10.442c-3.461-3.233-7.038-6.575-11.237-10.492,4.172-3.29,7.938-6.26,12.268-9.674l10.29,9.723" transform="translate(-35.576 -102.97)" fill="rgba(63,99,182,0.16)"/>
      <path id="Path_299" data-name="Path 299" d="M323.418,228.091c3.014,3.012,6.231,6.227,9.791,9.781-3.6,3.789-6.875,7.236-10.607,11.165l-10.946-10.38,11.762-10.565" transform="translate(-57.069 -107.543)" fill="rgba(63,99,182,0.16)"/>
    </g>
  </g>
</svg>
