<svg xmlns="http://www.w3.org/2000/svg" width="32.847" height="27.775" viewBox="0 0 32.847 27.775">
  <path id="Certificate" d="M33.488,25.454A3.885,3.885,0,1,1,29.6,21.569a3.885,3.885,0,0,1,3.885,3.885Zm-6.3,5.09v4.065a.586.586,0,0,0,.87.513l1.121-.621a.879.879,0,0,1,.851,0l1.12.621a.586.586,0,0,0,.869-.513V30.544A5.571,5.571,0,0,1,27.187,30.544Zm9.62-22.538V30.468a.586.586,0,0,1-.586.586H33.773V29.238a5.64,5.64,0,1,0-8.341,0v1.816H4.546a.586.586,0,0,1-.586-.586V8.006a.586.586,0,0,1,.586-.586H36.221A.586.586,0,0,1,36.807,8.006ZM14.146,12.147a.877.877,0,0,0,.879.879H25.743a.879.879,0,1,0,0-1.757H15.024a.877.877,0,0,0-.879.879Zm7.96,11.972a.877.877,0,0,0-.879-.879H8.1A.879.879,0,1,0,8.1,25H21.227a.877.877,0,0,0,.879-.879Zm1.2-3.989a.877.877,0,0,0-.879-.879H8.1a.879.879,0,1,0,0,1.757H22.428a.877.877,0,0,0,.879-.879Zm10.238-3.995a.881.881,0,0,0-.879-.879H8.1a.879.879,0,0,0,0,1.757H32.666a.877.877,0,0,0,.879-.879Z" transform="translate(-3.96 -7.42)" fill="#fff"/>
</svg>
