<svg xmlns="http://www.w3.org/2000/svg" width="33.543" height="33.543" viewBox="0 0 33.543 33.543">
  <path id="chat" d="M18.772,17.514a1.258,1.258,0,1,0,1.258,1.258A1.258,1.258,0,0,0,18.772,17.514Zm-5.031,0A1.258,1.258,0,1,0,15,18.772,1.258,1.258,0,0,0,13.74,17.514Zm10.063,0a1.258,1.258,0,1,0,1.258,1.258A1.258,1.258,0,0,0,23.8,17.514Zm7.4-10a16.772,16.772,0,0,0-24.874,22.5L2.246,34.111a.839.839,0,0,0,.593,1.431H18.772A16.772,16.772,0,0,0,31.208,7.519ZM18.772,33.865H4.863L8.1,30.631h0a.838.838,0,0,0,0-1.185,15.092,15.092,0,1,1,10.674,4.42Z" transform="translate(-1.999 -1.999)" fill="#013fcd"/>
</svg>
