<svg xmlns="http://www.w3.org/2000/svg" width="27.979" height="33.6" viewBox="0 0 27.979 33.6">
  <path id="exam" d="M8.136,8.72V35.6h22.9a1.68,1.68,0,0,0,1.736-1.68v-1.68h1.68a.56.56,0,0,0,.56-.56V5.92A3.92,3.92,0,0,0,31.1,2H8.539a3.36,3.36,0,0,0,0,5.6h22a3.248,3.248,0,0,1-1.473-2.24h.8A1.719,1.719,0,0,1,31.655,7V33.919a.56.56,0,0,1-.616.56h-.5V8.72ZM29.863,4.24h-.8a3.36,3.36,0,0,1,.4-1.12H31.1a2.8,2.8,0,0,1,2.8,2.8v25.2h-1.12V7A2.839,2.839,0,0,0,29.863,4.24ZM10.936,11.52h1.68V9.84a.56.56,0,1,1,1.12,0v1.68h1.68a.56.56,0,0,1,0,1.12h-1.68v1.68a.56.56,0,0,1-1.12,0V12.64h-1.68a.56.56,0,1,1,0-1.12ZM10.376,16h8.96a.56.56,0,0,1,0,1.12h-8.96a.56.56,0,0,1,0-1.12Zm16.8,16.239h-16.8a.56.56,0,0,1,0-1.12h16.8a.56.56,0,0,1,0,1.12Zm0-5.04h-16.8a.56.56,0,0,1,0-1.12h16.8a.56.56,0,0,1,0,1.12Zm0-5.04h-16.8a.56.56,0,0,1,0-1.12h16.8a.56.56,0,0,1,0,1.12Z" transform="translate(-7.037 -2)" fill="#fff"/>
</svg>
