<svg xmlns="http://www.w3.org/2000/svg" width="42.194" height="33.744" viewBox="0 0 42.194 33.744">
  <path id="eye" d="M44.014,20.028C39.754,10.137,31.74,4,23.094,4S6.433,10.137,2.173,20.028a2.109,2.109,0,0,0,0,1.687c4.26,9.891,12.274,16.028,20.921,16.028s16.661-6.137,20.921-16.028A2.109,2.109,0,0,0,44.014,20.028Zm-20.921,13.5c-6.685,0-13.012-4.83-16.661-12.654,3.649-7.824,9.975-12.654,16.661-12.654s13.012,4.83,16.661,12.654C36.106,28.7,29.779,33.526,23.094,33.526Zm0-21.09a8.436,8.436,0,1,0,8.436,8.436A8.436,8.436,0,0,0,23.094,12.436Zm0,12.654a4.218,4.218,0,1,1,4.218-4.218A4.218,4.218,0,0,1,23.094,25.09Z" transform="translate(-1.997 -4)" fill="#f7c553"/>
</svg>
