<svg width="622" height="575" viewBox="0 0 622 575" fill="none" xmlns="http://www.w3.org/2000/svg">
<g clip-path="url(#clip0_1_173)">
<path d="M293.889 575H8.92639C4.27786 575 0.5 571.227 0.5 566.583V8.41665C0.5 3.77349 4.27786 0 8.92639 0H293.889C298.538 0 302.315 3.77349 302.315 8.41665V566.598C302.315 571.241 298.538 575.015 293.889 575.015V575ZM8.92639 0.368505C4.48446 0.368505 0.868931 3.97985 0.868931 8.41665V566.598C0.868931 571.035 4.48446 574.646 8.92639 574.646H293.889C298.331 574.646 301.946 571.035 301.946 566.598V8.41665C301.946 3.97985 298.331 0.368505 293.889 0.368505H8.92639Z" fill="#999999"/>
<path d="M613.074 575H328.111C323.462 575 319.685 571.227 319.685 566.583V8.41665C319.685 3.77349 323.462 0 328.111 0H613.074C617.722 0 621.5 3.77349 621.5 8.41665V566.598C621.5 571.241 617.722 575.015 613.074 575.015V575ZM328.111 0.368505C323.669 0.368505 320.054 3.97985 320.054 8.41665V566.598C320.054 571.035 323.669 574.646 328.111 574.646H613.074C617.516 574.646 621.131 571.035 621.131 566.598V8.41665C621.131 3.97985 617.516 0.368505 613.074 0.368505H328.111Z" fill="#999999"/>
<path d="M108.907 166.992L111.297 171.826L116.625 172.608L112.773 176.366L113.673 181.673L108.907 179.167L104.14 181.673L105.04 176.366L101.189 172.608L106.516 171.826L108.907 166.992Z" fill="#D6B05A"/>
<path d="M586.525 394.344L588.916 399.179L594.243 399.946L590.392 403.704L591.292 409.011L586.525 406.505L581.759 409.011L582.659 403.704L578.807 399.946L584.135 399.179L586.525 394.344Z" fill="#D6B05A"/>
<path d="M491.917 534.494L494.307 539.329L499.649 540.095L495.783 543.869L496.698 549.175L491.917 546.669L487.15 549.175L488.065 543.869L484.198 540.095L489.541 539.329L491.917 534.494Z" fill="#D6B05A"/>
<path d="M275.501 81.3658L276.387 83.1641L278.364 83.4442C278.866 83.5179 279.058 84.1223 278.704 84.476L277.272 85.8763L277.612 87.8515C277.7 88.3379 277.184 88.7212 276.741 88.4853L274.97 87.5567L273.199 88.4853C272.757 88.7212 272.24 88.3379 272.329 87.8515L272.668 85.8763L271.237 84.476C270.882 84.1223 271.074 83.5179 271.576 83.4442L273.553 83.1641L274.439 81.3658C274.66 80.9236 275.295 80.9236 275.516 81.3658H275.501Z" fill="#D6B05A"/>
<path d="M31.7559 511.558L32.6413 513.357L34.6188 513.637C35.1205 513.71 35.3124 514.315 34.9582 514.668L33.5267 516.069L33.8662 518.044C33.9547 518.53 33.4382 518.914 32.9955 518.678L31.2246 517.749L29.4537 518.678C29.011 518.914 28.4945 518.53 28.5831 518.044L28.9225 516.069L27.491 514.668C27.1368 514.315 27.3287 513.71 27.8304 513.637L29.8079 513.357L30.6933 511.558C30.9147 511.116 31.5493 511.116 31.7706 511.558H31.7559Z" fill="#F5F5F5"/>
<path d="M71.5709 62.4247L72.4564 64.223L74.4339 64.5031C74.9208 64.5768 75.1274 65.1811 74.7733 65.5349L73.3418 66.9352L73.6812 68.9104C73.7698 69.3968 73.2533 69.7801 72.8106 69.5442L71.0397 68.6156L69.2688 69.5442C68.8261 69.7801 68.3096 69.3968 68.3981 68.9104L68.7376 66.9352L67.3061 65.5349C66.9519 65.1811 67.1438 64.5768 67.6455 64.5031L69.623 64.223L70.5084 62.4247C70.7298 61.9825 71.3643 61.9825 71.5857 62.4247H71.5709Z" fill="#D6B05A"/>
<path d="M69.1803 417.693C69.1803 418.769 68.3096 419.653 67.2175 419.653C66.1255 419.653 65.2548 418.783 65.2548 417.693C65.2548 416.602 66.1255 415.732 67.2175 415.732C68.3096 415.732 69.1803 416.602 69.1803 417.693Z" fill="#999999"/>
<path d="M348.889 172.372C348.889 173.448 348.019 174.332 346.927 174.332C345.834 174.332 344.964 173.463 344.964 172.372C344.964 171.281 345.834 170.411 346.927 170.411C348.019 170.411 348.889 171.281 348.889 172.372Z" fill="#999999"/>
<path d="M247.108 64.0461C247.108 65.1222 246.238 66.0066 245.146 66.0066C244.054 66.0066 243.183 65.1369 243.183 64.0461C243.183 62.9553 244.054 62.0857 245.146 62.0857C246.238 62.0857 247.108 62.9553 247.108 64.0461Z" fill="#F5F5F5"/>
<path d="M250.222 541.831C256.053 540.457 259.663 534.622 258.287 528.798C256.911 522.975 251.069 519.368 245.239 520.742C239.409 522.117 235.798 527.952 237.174 533.775C238.55 539.599 244.392 543.205 250.222 541.831Z" fill="#F0F0F0"/>
<path d="M243.995 524.957C241.693 524.957 239.553 525.694 237.811 526.962C237.236 528.288 236.911 529.748 236.911 531.281C236.911 537.265 241.766 542.1 247.758 542.1C249.78 542.1 251.683 541.54 253.307 540.567C253.307 540.567 253.307 540.562 253.307 540.552C254.118 539.049 254.576 537.339 254.576 535.511C254.576 529.689 249.839 524.957 243.995 524.957Z" fill="#E6E6E6"/>
<path d="M160.011 342.989H70.2133V302.498L160.011 195.868H202.984V304.798H225.253V343.004H202.984V376.125H160.011V343.004V342.989ZM160.011 304.783V249.006L112.552 304.783H160.011Z" fill="#4065B9"/>
<path d="M240.615 286.785C240.615 253.104 246.681 229.519 258.826 216.062C270.971 202.604 289.462 195.868 314.313 195.868C326.252 195.868 336.05 197.342 343.724 200.275C351.383 203.223 357.64 207.041 362.481 211.758C367.321 216.474 371.128 221.427 373.918 226.63C376.707 231.834 378.935 237.892 380.632 244.82C383.938 258.042 385.591 271.824 385.591 286.166C385.591 318.329 380.145 341.854 369.254 356.771C358.363 371.689 339.607 379.132 312.97 379.132C298.036 379.132 285.979 376.759 276.785 371.998C267.592 367.237 260.036 360.28 254.148 351.082C249.868 344.552 246.548 335.634 244.157 324.299C241.781 312.978 240.586 300.464 240.586 286.756L240.615 286.785ZM289.506 286.903C289.506 309.47 291.498 324.888 295.497 333.143C299.497 341.397 305.282 345.539 312.867 345.539C317.869 345.539 322.208 343.785 325.883 340.277C329.557 336.769 332.258 331.227 333.999 323.65C335.741 316.074 336.596 304.267 336.596 288.23C336.596 264.704 334.604 248.888 330.605 240.781C326.606 232.674 320.614 228.635 312.631 228.635C304.647 228.635 298.597 232.762 294.966 241.032C291.336 249.301 289.521 264.586 289.521 286.903H289.506Z" fill="#4065B9"/>
<path d="M490.662 342.989H400.864V302.498L490.662 195.868H533.635V304.798H555.904V343.004H533.635V376.125H490.662V343.004V342.989ZM490.662 304.783V249.006L443.203 304.783H490.662Z" fill="#4065B9"/>
<g opacity="0.3">
<path d="M238.623 133.649C238.623 135.168 237.383 136.406 235.863 136.406C234.343 136.406 233.104 135.168 233.104 133.649C233.104 132.131 234.343 130.893 235.863 130.893C237.383 130.893 238.623 132.131 238.623 133.649Z" fill="#4065B9"/>
<path d="M49.745 239.528C50.8208 239.528 51.6929 238.657 51.6929 237.582C51.6929 236.508 50.8208 235.637 49.745 235.637C48.6691 235.637 47.797 236.508 47.797 237.582C47.797 238.657 48.6691 239.528 49.745 239.528Z" fill="#4065B9"/>
<path d="M371.586 523.675C373.126 523.675 374.375 522.427 374.375 520.889C374.375 519.35 373.126 518.103 371.586 518.103C370.045 518.103 368.797 519.35 368.797 520.889C368.797 522.427 370.045 523.675 371.586 523.675Z" fill="#4065B9"/>
<path d="M438.643 410.323C439.719 410.323 440.591 409.451 440.591 408.377C440.591 407.302 439.719 406.431 438.643 406.431C437.567 406.431 436.695 407.302 436.695 408.377C436.695 409.451 437.567 410.323 438.643 410.323Z" fill="#4065B9"/>
<path d="M568.034 59.9483C568.034 61.0244 567.164 61.8941 566.087 61.8941C565.009 61.8941 564.139 61.0244 564.139 59.9483C564.139 58.8723 565.009 58.0026 566.087 58.0026C567.164 58.0026 568.034 58.8723 568.034 59.9483Z" fill="#4065B9"/>
<path d="M197.008 20.651C197.008 21.727 196.137 22.5967 195.06 22.5967C193.982 22.5967 193.112 21.727 193.112 20.651C193.112 19.575 193.982 18.7053 195.06 18.7053C196.137 18.7053 197.008 19.575 197.008 20.651Z" fill="#4065B9"/>
<path d="M351.87 122.801C352.946 122.801 353.818 121.929 353.818 120.855C353.818 119.78 352.946 118.909 351.87 118.909C350.794 118.909 349.922 119.78 349.922 120.855C349.922 121.929 350.794 122.801 351.87 122.801Z" fill="#4065B9"/>
</g>
<path d="M150.493 122.815C168.35 122.815 182.826 108.356 182.826 90.5195C182.826 72.683 168.35 58.2237 150.493 58.2237C132.636 58.2237 118.16 72.683 118.16 90.5195C118.16 108.356 132.636 122.815 150.493 122.815Z" fill="#4065B9"/>
<path opacity="0.7" d="M150.493 122.815C168.35 122.815 182.826 108.356 182.826 90.5195C182.826 72.683 168.35 58.2237 150.493 58.2237C132.636 58.2237 118.16 72.683 118.16 90.5195C118.16 108.356 132.636 122.815 150.493 122.815Z" fill="white"/>
<path opacity="0.2" d="M139.351 66.154C134.821 66.154 130.511 67.0826 126.601 68.763C121.362 74.4969 118.16 82.1471 118.16 90.5195C118.16 108.355 132.636 122.801 150.478 122.801C155.023 122.801 159.362 121.872 163.287 120.177C168.497 114.428 171.669 106.807 171.669 98.4497C171.669 80.5994 157.193 66.154 139.336 66.154H139.351Z" fill="#4065B9"/>
<path opacity="0.2" d="M136.134 74.6885C136.134 76.3247 134.806 77.6366 133.182 77.6366C131.559 77.6366 130.231 76.31 130.231 74.6885C130.231 73.0671 131.559 71.7405 133.182 71.7405C134.806 71.7405 136.134 73.0671 136.134 74.6885Z" fill="#4065B9"/>
<path opacity="0.2" d="M170.902 71.7405C170.902 73.3767 169.574 74.6885 167.951 74.6885C166.327 74.6885 164.999 73.3619 164.999 71.7405C164.999 70.1191 166.327 68.7925 167.951 68.7925C169.574 68.7925 170.902 70.1191 170.902 71.7405Z" fill="#4065B9"/>
<path opacity="0.2" d="M164.984 92.7895C164.984 95.4575 162.815 97.6243 160.144 97.6243C157.473 97.6243 155.304 95.4575 155.304 92.7895C155.304 90.1215 157.473 87.9547 160.144 87.9547C162.815 87.9547 164.984 90.1215 164.984 92.7895Z" fill="#4065B9"/>
<path opacity="0.2" d="M149.622 106.557C149.622 110.124 146.73 113.013 143.158 113.013C139.587 113.013 136.695 110.124 136.695 106.557C136.695 102.99 139.587 100.101 143.158 100.101C146.73 100.101 149.622 102.99 149.622 106.557Z" fill="#4065B9"/>
<path d="M533.698 480.095C537.298 464.859 527.851 449.592 512.598 445.996C497.344 442.4 482.06 451.836 478.459 467.072C474.859 482.308 484.306 497.575 499.56 501.171C514.814 504.767 530.098 495.331 533.698 480.095Z" fill="#4065B9"/>
<path opacity="0.3" d="M533.698 480.095C537.298 464.859 527.851 449.592 512.598 445.996C497.344 442.4 482.06 451.836 478.459 467.072C474.859 482.308 484.306 497.575 499.56 501.171C514.814 504.767 530.098 495.331 533.698 480.095Z" fill="white"/>
<path opacity="0.4" d="M523.999 451.625C521.416 450.843 518.671 450.431 515.823 450.431C500.151 450.431 487.445 463.122 487.445 478.776C487.445 487.65 491.518 495.55 497.908 500.754C500.491 501.535 503.235 501.948 506.084 501.948C521.756 501.948 534.462 489.256 534.462 473.602C534.462 464.729 530.389 456.813 523.999 451.625Z" fill="#4065B9"/>
<path d="M478.989 482.004C448.693 496.243 471.286 507.225 513.979 491.895C553.499 477.7 568.536 459.805 533.237 465.348C535.052 472.88 485.556 492.145 478.989 481.989V482.004Z" fill="#D6B05A"/>
<path opacity="0.2" d="M523.645 195.868C483.962 222.651 432.592 257.968 418.411 342.989H415.385C429.183 259 478.679 222.754 518.376 195.868H523.645Z" fill="black"/>
<path d="M318.401 461.825C293.358 461.825 268.506 450.534 256.435 432.064C248.983 420.655 240.32 396.762 266.116 364.879L268.418 366.736C250.178 389.288 246.799 411.915 258.914 430.458C273.657 453.025 308.499 464.375 338.205 456.297C368.649 448.028 387.125 421.569 388.911 383.731C395.006 254.298 463.848 214.44 514.126 185.328C545.353 167.242 567.916 154.168 562.958 126.603C562.264 122.786 560.744 120.133 558.295 118.526C551.875 114.295 539.332 117.214 524.81 120.604C496.314 127.237 457.296 136.317 434.053 96.8283L436.592 95.3395C458.742 132.956 495.001 124.525 524.132 117.745C539.317 114.207 552.436 111.156 559.918 116.079C563.076 118.157 565.024 121.444 565.865 126.102C571.192 155.701 546.666 169.91 515.602 187.893C465.929 216.666 397.883 256.067 391.862 383.893C390.018 423.102 370.745 450.534 338.987 459.157C332.287 460.97 325.337 461.84 318.415 461.84L318.401 461.825Z" fill="#4065B9"/>
<path opacity="0.2" d="M318.401 461.825C293.358 461.825 268.506 450.534 256.435 432.064C248.983 420.655 240.32 396.762 266.116 364.879L268.418 366.736C250.178 389.288 246.799 411.915 258.914 430.458C273.657 453.025 308.499 464.375 338.205 456.297C368.649 448.028 387.125 421.569 388.911 383.731C395.006 254.298 463.848 214.44 514.126 185.328C545.353 167.242 567.916 154.168 562.958 126.603C562.264 122.786 560.744 120.133 558.295 118.526C551.875 114.295 539.332 117.214 524.81 120.604C496.314 127.237 457.296 136.317 434.053 96.8283L436.592 95.3395C458.742 132.956 495.001 124.525 524.132 117.745C539.317 114.207 552.436 111.156 559.918 116.079C563.076 118.157 565.024 121.444 565.865 126.102C571.192 155.701 546.666 169.91 515.602 187.893C465.929 216.666 397.883 256.067 391.862 383.893C390.018 423.102 370.745 450.534 338.987 459.157C332.287 460.97 325.337 461.84 318.415 461.84L318.401 461.825Z" fill="white"/>
<path d="M403.609 61.9088C413.733 61.7319 423.649 65.0484 423.649 65.0484C423.649 65.0484 439.823 92.7158 441.801 99.0541C441.122 105.304 430.556 115.548 430.556 115.548L403.594 61.9088H403.609Z" fill="#4065B9"/>
<path opacity="0.3" d="M403.609 61.9088C413.733 61.7319 423.649 65.0484 423.649 65.0484C423.649 65.0484 439.823 92.7158 441.801 99.0541C441.122 105.304 430.556 115.548 430.556 115.548L403.594 61.9088H403.609Z" fill="white"/>
<path d="M451.703 196.31C445.594 188.571 439.602 180.7 434.644 172.165C433.404 170.028 432.223 167.861 431.117 165.65C430.482 164.397 429.877 163.13 429.287 161.862C428.77 160.756 427.619 159.12 427.516 157.912C425.745 139.236 432.15 125.483 425.996 110.492L401.691 119.985C401.691 119.985 403.757 146.694 408.479 162.673C411.401 172.593 418.027 181.172 424.417 189.117C426.409 191.608 428.342 194.143 430.335 196.634C432.223 198.993 434.334 201.145 436.223 203.488C439.1 207.041 440.045 210.446 437.861 214.632C437.743 214.853 437.625 215.074 437.492 215.295C436.872 216.386 439.779 217.624 441.594 215.325C444.605 211.522 444.133 211.758 446.7 208.515C448.265 206.54 450.05 204.417 451.6 202.574C453.105 200.776 453.149 198.167 451.688 196.31H451.703Z" fill="#4065B9"/>
<path opacity="0.7" d="M451.703 196.31C445.594 188.571 439.602 180.7 434.644 172.165C433.404 170.028 432.223 167.861 431.117 165.65C430.482 164.397 429.877 163.13 429.287 161.862C428.77 160.756 427.619 159.12 427.516 157.912C425.745 139.236 432.15 125.483 425.996 110.492L401.691 119.985C401.691 119.985 403.757 146.694 408.479 162.673C411.401 172.593 418.027 181.172 424.417 189.117C426.409 191.608 428.342 194.143 430.335 196.634C432.223 198.993 434.334 201.145 436.223 203.488C439.1 207.041 440.045 210.446 437.861 214.632C437.743 214.853 437.625 215.074 437.492 215.295C436.872 216.386 439.779 217.624 441.594 215.325C444.605 211.522 444.133 211.758 446.7 208.515C448.265 206.54 450.05 204.417 451.6 202.574C453.105 200.776 453.149 198.167 451.688 196.31H451.703Z" fill="white"/>
<path opacity="0.3" d="M445.756 188.63C442.495 192.566 435.883 197.651 432.976 199.715C433.611 200.422 434.245 201.145 434.865 201.867C440.871 197.946 445.608 192.875 447.409 190.812C446.848 190.089 446.302 189.367 445.756 188.63Z" fill="#4065B9"/>
<path opacity="0.3" d="M451.688 196.31C451.629 196.236 451.57 196.177 451.511 196.089C450.493 197.15 449.77 198.86 449.652 200.761C449.548 202.073 449.77 203.282 450.213 204.225C450.7 203.65 451.157 203.09 451.614 202.56C453.134 200.761 453.149 198.152 451.688 196.31Z" fill="#4065B9"/>
<path d="M397.839 79.597C395.301 83.2968 392.305 86.9376 388.424 90.1952C386.505 91.8314 384.307 93.3201 381.901 94.5878C380.691 95.2069 379.407 95.7375 378.094 96.1797L377.105 96.504L376.78 96.6072C376.544 96.6809 376.308 96.7398 376.072 96.7988C375.629 96.902 375.172 96.961 374.788 97.0052C373.194 97.1231 372.029 96.902 371.084 96.6662C369.195 96.1502 367.941 95.4722 366.746 94.8089C365.565 94.1308 364.547 93.438 363.573 92.7305C361.654 91.2712 359.913 89.7972 358.29 88.2348C355.028 85.1246 352.136 81.8965 349.45 78.2999C348.225 76.6637 348.565 74.3495 350.203 73.1261C351.472 72.1827 353.139 72.168 354.394 72.9639L354.512 73.0376C357.994 75.2487 361.507 77.5776 364.93 79.656C366.657 80.673 368.354 81.7049 370.022 82.5008C370.833 82.9136 371.645 83.2968 372.368 83.5621C373.076 83.8422 373.77 83.9896 373.962 83.9601C374.036 83.9601 373.962 83.8569 373.401 83.8717C373.268 83.8717 373.076 83.9011 372.899 83.9306C372.796 83.9454 372.678 83.9748 372.575 84.0191C372.471 84.0485 372.619 83.9896 372.619 83.9896L373.106 83.739C373.755 83.4147 374.375 83.002 375.01 82.5745C376.279 81.7196 377.474 80.6436 378.699 79.4496C381.134 77.047 383.465 74.04 385.93 70.915L385.959 70.8708C388.483 67.6722 393.132 67.1268 396.334 69.6621C399.403 72.0795 400.008 76.4574 397.839 79.6265V79.597Z" fill="#4065B9"/>
<path opacity="0.7" d="M397.839 79.597C395.301 83.2968 392.305 86.9376 388.424 90.1952C386.505 91.8314 384.307 93.3201 381.901 94.5878C380.691 95.2069 379.407 95.7375 378.094 96.1797L377.105 96.504L376.78 96.6072C376.544 96.6809 376.308 96.7398 376.072 96.7988C375.629 96.902 375.172 96.961 374.788 97.0052C373.194 97.1231 372.029 96.902 371.084 96.6662C369.195 96.1502 367.941 95.4722 366.746 94.8089C365.565 94.1308 364.547 93.438 363.573 92.7305C361.654 91.2712 359.913 89.7972 358.29 88.2348C355.028 85.1246 352.136 81.8965 349.45 78.2999C348.225 76.6637 348.565 74.3495 350.203 73.1261C351.472 72.1827 353.139 72.168 354.394 72.9639L354.512 73.0376C357.994 75.2487 361.507 77.5776 364.93 79.656C366.657 80.673 368.354 81.7049 370.022 82.5008C370.833 82.9136 371.645 83.2968 372.368 83.5621C373.076 83.8422 373.77 83.9896 373.962 83.9601C374.036 83.9601 373.962 83.8569 373.401 83.8717C373.268 83.8717 373.076 83.9011 372.899 83.9306C372.796 83.9454 372.678 83.9748 372.575 84.0191C372.471 84.0485 372.619 83.9896 372.619 83.9896L373.106 83.739C373.755 83.4147 374.375 83.002 375.01 82.5745C376.279 81.7196 377.474 80.6436 378.699 79.4496C381.134 77.047 383.465 74.04 385.93 70.915L385.959 70.8708C388.483 67.6722 393.132 67.1268 396.334 69.6621C399.403 72.0795 400.008 76.4574 397.839 79.6265V79.597Z" fill="white"/>
<path d="M343.887 69.9569L345.613 72.8607C345.613 72.8607 346.941 76.7227 349.583 77.4302L356.74 75.116L356.386 74.5116C355.471 73.1113 355.574 70.4286 355.884 68.1881C356.209 65.9476 355.043 65.8739 354.187 66.4193C353.685 66.7436 353.346 67.7606 352.933 68.8662C352.579 68.3797 352.21 67.908 351.782 67.4953L349.598 65.3138C348.653 64.3704 347.133 64.3262 346.144 65.2106L344.374 66.7878C343.473 67.5838 343.267 68.9251 343.887 69.9569Z" fill="#4065B9"/>
<path opacity="0.7" d="M343.887 69.9569L345.613 72.8607C345.613 72.8607 346.941 76.7227 349.583 77.4302L356.74 75.116L356.386 74.5116C355.471 73.1113 355.574 70.4286 355.884 68.1881C356.209 65.9476 355.043 65.8739 354.187 66.4193C353.685 66.7436 353.346 67.7606 352.933 68.8662C352.579 68.3797 352.21 67.908 351.782 67.4953L349.598 65.3138C348.653 64.3704 347.133 64.3262 346.144 65.2106L344.374 66.7878C343.473 67.5838 343.267 68.9251 343.887 69.9569Z" fill="white"/>
<path d="M410.87 59.3587C404.008 61.0244 394.578 64.9305 388.217 68.8956C385.96 70.296 384.838 72.9639 385.369 75.5582C388.203 89.4729 394.681 108.105 401.676 119.97L434.304 106.483C434.526 100.734 426.601 82.1323 418.544 64.1493C417.097 60.9212 414.323 58.5185 410.87 59.344V59.3587Z" fill="#4065B9"/>
<path opacity="0.8" d="M410.87 59.3587C404.008 61.0244 394.578 64.9305 388.217 68.8956C385.96 70.296 384.838 72.9639 385.369 75.5582C388.203 89.4729 394.681 108.105 401.676 119.97L434.304 106.483C434.526 100.734 426.601 82.1323 418.544 64.1493C417.097 60.9212 414.323 58.5185 410.87 59.344V59.3587Z" fill="white"/>
<path opacity="0.3" d="M423.59 75.5582L417.112 73.3914C418.558 77.1796 423.797 81.9702 427.486 84.7856C426.276 81.8228 424.963 78.7421 423.59 75.5582Z" fill="#4065B9"/>
<path d="M408.715 44.7659C406.029 39.6364 400.2 37.0568 393.191 37.6317C387.288 38.1181 382.064 44.1469 382.683 47.3897C383.303 50.6473 388.262 52.0181 389.162 53.1531L385.074 56.1159C383.038 57.5899 382.639 60.4642 384.189 62.4394C385.915 64.621 388.173 66.9057 389.501 68.5124C400.805 68.2176 409.173 63.9135 412.183 59.7567C411.106 54.4797 411.386 49.8661 408.7 44.7512L408.715 44.7659Z" fill="#4065B9"/>
<path opacity="0.8" d="M408.715 44.7659C406.029 39.6364 400.2 37.0568 393.191 37.6317C387.288 38.1181 382.064 44.1469 382.683 47.3897C383.303 50.6473 388.262 52.0181 389.162 53.1531L385.074 56.1159C383.038 57.5899 382.639 60.4642 384.189 62.4394C385.915 64.621 388.173 66.9057 389.501 68.5124C400.805 68.2176 409.173 63.9135 412.183 59.7567C411.106 54.4797 411.386 49.8661 408.7 44.7512L408.715 44.7659Z" fill="white"/>
<path d="M403.181 47.9351C405.424 53.6838 402.591 60.1547 396.836 62.3952C391.08 64.6357 384.602 61.8056 382.359 56.0569C380.116 50.3083 382.949 43.8373 388.704 41.5968C394.46 39.3563 400.938 42.1864 403.181 47.9351Z" fill="#263238"/>
<path d="M498.985 180.774C498.823 175.924 498.616 176.411 498.469 172.283C498.38 169.777 498.365 166.992 498.351 164.589C498.336 162.245 496.668 160.226 494.366 159.754C492.404 159.356 490.456 158.988 488.493 158.56C485.94 158.015 483.431 157.44 480.922 156.703C478.989 156.143 477.056 155.524 475.167 154.831C473.131 154.094 471.124 153.298 469.131 152.443C466.8 151.441 464.512 150.379 462.225 149.289C459.672 148.065 457.148 146.812 454.64 145.53C444.929 129.463 444.723 118.894 434.289 106.468L411.917 116.58C411.917 116.58 428.357 145.707 439.543 158.059C445.992 165.164 456.101 168.377 465.117 170.691C471.625 172.372 478.222 173.654 484.818 174.863C487.386 175.335 490.175 175.511 492.389 177.044C494.13 178.253 495.03 180.14 495.547 182.13C495.65 182.542 495.739 182.955 495.812 183.368C496.049 184.606 499.059 183.677 498.956 180.744L498.985 180.774Z" fill="#4065B9"/>
<path opacity="0.8" d="M498.985 180.774C498.823 175.924 498.616 176.411 498.469 172.283C498.38 169.777 498.365 166.992 498.351 164.589C498.336 162.245 496.668 160.226 494.366 159.754C492.404 159.356 490.456 158.988 488.493 158.56C485.94 158.015 483.431 157.44 480.922 156.703C478.989 156.143 477.056 155.524 475.167 154.831C473.131 154.094 471.124 153.298 469.131 152.443C466.8 151.441 464.512 150.379 462.225 149.289C459.672 148.065 457.148 146.812 454.64 145.53C444.929 129.463 444.723 118.894 434.289 106.468L411.917 116.58C411.917 116.58 428.357 145.707 439.543 158.059C445.992 165.164 456.101 168.377 465.117 170.691C471.625 172.372 478.222 173.654 484.818 174.863C487.386 175.335 490.175 175.511 492.389 177.044C494.13 178.253 495.03 180.14 495.547 182.13C495.65 182.542 495.739 182.955 495.812 183.368C496.049 184.606 499.059 183.677 498.956 180.744L498.985 180.774Z" fill="white"/>
<path opacity="0.3" d="M487.652 158.383C486.766 158.192 485.881 158 484.981 157.779C485.054 162.864 482.664 171.664 481.778 174.317C482.708 174.494 483.652 174.671 484.582 174.848C487.179 167.847 487.578 160.447 487.637 158.369L487.652 158.383Z" fill="#4065B9"/>
<path opacity="0.3" d="M498.365 164.589C498.351 162.231 496.698 160.226 494.396 159.754C493.938 159.666 493.451 159.563 492.994 159.474C493.097 160.86 493.953 162.466 495.399 163.749C496.344 164.604 497.421 165.164 498.395 165.429C498.395 165.134 498.395 164.854 498.38 164.589H498.365Z" fill="#4065B9"/>
<path d="M401.086 48.0383C401.676 50.2788 399.182 52.6225 397.175 50.6915C395.552 49.129 393.102 46.4906 391.095 45.2524C389.044 43.97 391.774 41.7295 395.006 42.5991C398.016 43.4098 400.481 45.8125 401.086 48.0383Z" fill="white"/>
<path d="M401.263 119.263C400.23 119.646 402.119 121.415 402.119 121.415C402.119 121.415 422.735 114.354 435.308 107.087C435.411 105.569 434.304 104.759 434.304 104.759C434.304 104.759 419.001 112.718 401.248 119.263H401.263Z" fill="#4065B9"/>
<path opacity="0.5" d="M401.263 119.263C400.23 119.646 402.119 121.415 402.119 121.415C402.119 121.415 422.735 114.354 435.308 107.087C435.411 105.569 434.304 104.759 434.304 104.759C434.304 104.759 419.001 112.718 401.248 119.263H401.263Z" fill="white"/>
<path d="M416.463 58.3859C420.536 60.4348 424.358 62.6163 428.195 65.019C430.098 66.2129 432.002 67.4511 433.862 68.7777C435.75 70.0749 437.595 71.4457 439.469 72.9934L440.163 73.5683L441.034 74.3495C441.653 74.8949 442.111 75.3961 442.568 75.8972C443.041 76.4131 443.439 76.9143 443.823 77.4155C444.221 77.9166 444.605 78.4178 444.959 78.9042C446.42 80.8647 447.615 82.8546 448.781 84.8298C451.054 88.8391 453.016 92.8337 454.64 97.1378C455.363 99.0541 454.389 101.191 452.47 101.914C451.024 102.459 449.46 102.046 448.456 100.985L448.383 100.911C445.416 97.7717 442.568 94.4699 439.705 91.3892C436.902 88.3232 433.935 85.1835 431.53 83.8127C428.18 81.7196 424.446 79.656 420.742 77.6071L409.586 71.4162H409.556C405.985 69.4263 404.701 64.9453 406.679 61.3781C408.612 57.9142 412.936 56.6023 416.463 58.3711V58.3859Z" fill="#4065B9"/>
<path opacity="0.8" d="M416.463 58.3859C420.536 60.4348 424.358 62.6163 428.195 65.019C430.098 66.2129 432.002 67.4511 433.862 68.7777C435.75 70.0749 437.595 71.4457 439.469 72.9934L440.163 73.5683L441.034 74.3495C441.653 74.8949 442.111 75.3961 442.568 75.8972C443.041 76.4131 443.439 76.9143 443.823 77.4155C444.221 77.9166 444.605 78.4178 444.959 78.9042C446.42 80.8647 447.615 82.8546 448.781 84.8298C451.054 88.8391 453.016 92.8337 454.64 97.1378C455.363 99.0541 454.389 101.191 452.47 101.914C451.024 102.459 449.46 102.046 448.456 100.985L448.383 100.911C445.416 97.7717 442.568 94.4699 439.705 91.3892C436.902 88.3232 433.935 85.1835 431.53 83.8127C428.18 81.7196 424.446 79.656 420.742 77.6071L409.586 71.4162H409.556C405.985 69.4263 404.701 64.9453 406.679 61.3781C408.612 57.9142 412.936 56.6023 416.463 58.3711V58.3859Z" fill="white"/>
<path d="M458.181 104.346L456.927 101.206C456.927 101.206 456.233 97.1968 453.725 96.0765L446.287 97.241L446.553 97.8896C447.246 99.4078 446.715 102.061 446.051 104.213C445.387 106.38 446.523 106.631 447.453 106.218C447.999 105.982 448.501 105.024 449.076 103.992C449.342 104.523 449.652 105.053 450.006 105.54L451.821 108.031C452.603 109.107 454.094 109.387 455.215 108.665L457.207 107.382C458.226 106.734 458.639 105.451 458.196 104.331L458.181 104.346Z" fill="#4065B9"/>
<path opacity="0.8" d="M458.181 104.346L456.927 101.206C456.927 101.206 456.233 97.1968 453.725 96.0765L446.287 97.241L446.553 97.8896C447.246 99.4078 446.715 102.061 446.051 104.213C445.387 106.38 446.523 106.631 447.453 106.218C447.999 105.982 448.501 105.024 449.076 103.992C449.342 104.523 449.652 105.053 450.006 105.54L451.821 108.031C452.603 109.107 454.094 109.387 455.215 108.665L457.207 107.382C458.226 106.734 458.639 105.451 458.196 104.331L458.181 104.346Z" fill="white"/>
<path opacity="0.3" d="M410.22 75.3224L408.42 75.4698L397.367 102.12C398.016 102.164 398.606 102.12 399.167 101.973C399.167 101.973 413.57 96.6072 417.924 94.6467C414.987 88.5738 410.206 75.3224 410.206 75.3224H410.22Z" fill="#4065B9"/>
<path d="M390.047 82.3239C390.667 87.1292 394.268 97.3295 397.367 102.135C402.768 100.277 411.77 96.7693 416.123 94.8089C413.187 88.7359 410.102 80.3635 408.405 75.4845C403.757 75.794 393.633 79.6118 390.032 82.3387L390.047 82.3239Z" fill="white"/>
<path opacity="0.3" d="M401.027 88.0874C400.422 90.092 398.297 91.2418 396.29 90.6374C394.283 90.0331 393.131 87.9105 393.737 85.9058C394.342 83.9011 396.467 82.7514 398.474 83.3558C400.481 83.9601 401.632 86.0827 401.027 88.0874Z" fill="#4065B9"/>
<path opacity="0.6" d="M403.845 83.0167C403.653 83.68 402.96 84.0485 402.296 83.8569C401.632 83.6653 401.263 82.9725 401.455 82.3092C401.646 81.6459 402.34 81.2774 403.004 81.469C403.668 81.6606 404.037 82.3534 403.845 83.0167Z" fill="#4065B9"/>
<path opacity="0.6" d="M407.136 81.7343C406.944 82.3976 406.251 82.7662 405.587 82.5745C404.923 82.3829 404.554 81.6901 404.745 81.0268C404.937 80.3635 405.646 79.995 406.295 80.1866C406.959 80.3782 407.328 81.071 407.136 81.7343Z" fill="#4065B9"/>
<path opacity="0.5" d="M411.785 93.2022L398.134 98.5971L397.308 95.9144L410.958 90.5342L411.785 93.2022Z" fill="#4065B9"/>
<path opacity="0.2" d="M336.464 298.076C336.168 309.19 335.342 317.725 333.984 323.65C332.243 331.227 329.542 336.769 325.868 340.277C322.208 343.785 317.869 345.539 312.867 345.539C305.282 345.539 299.482 341.412 295.497 333.143C294.848 331.802 294.258 330.269 293.712 328.559C285.285 335.796 277.435 343.697 270.218 352.187L262.382 361.415C266.618 365.704 271.428 369.227 276.8 372.013C285.994 376.759 298.051 379.147 312.985 379.147C315.612 379.147 318.15 379.073 320.614 378.926C329.646 365.571 337.128 351.214 342.898 336.15L364.812 279.076L336.464 298.076Z" fill="black"/>
<path d="M138.908 375.89C147.172 384.144 164.733 401.685 164.733 401.685L237.059 333.629C212.163 324.181 163.656 351.17 138.908 375.89Z" fill="#263238"/>
<path d="M228.987 465.849C220.723 457.594 203.161 440.054 203.161 440.054L271.296 367.812C280.755 392.679 253.734 441.13 228.987 465.849Z" fill="#263238"/>
<path d="M327.816 303.279L355.987 249.021L301.666 277.16C284.208 286.195 268.108 297.619 253.794 311.077L161.192 398.147L206.688 443.591L293.859 351.097C307.333 336.799 318.755 320.702 327.816 303.279Z" fill="#4065B9"/>
<path opacity="0.6" d="M327.816 303.279L355.987 249.021L301.666 277.16C284.208 286.195 268.108 297.619 253.794 311.077L161.192 398.147L206.688 443.591L293.859 351.097C307.333 336.799 318.755 320.702 327.816 303.279Z" fill="white"/>
<path d="M269.967 353.956C280.481 353.956 289.004 345.443 289.004 334.941C289.004 324.44 280.481 315.926 269.967 315.926C259.454 315.926 250.931 324.44 250.931 334.941C250.931 345.443 259.454 353.956 269.967 353.956Z" fill="white"/>
<path d="M269.967 347.161C276.724 347.161 282.201 341.69 282.201 334.941C282.201 328.193 276.724 322.722 269.967 322.722C263.211 322.722 257.734 328.193 257.734 334.941C257.734 341.69 263.211 347.161 269.967 347.161Z" fill="#4065B9"/>
<path opacity="0.3" d="M222.08 427.259L177.543 382.773L214.008 348.488L256.406 390.836L222.08 427.259Z" fill="#4065B9"/>
<path d="M149.002 416.646C115.651 419.358 104.598 440.687 100.82 469.033C98.9014 483.493 98.0454 498.115 85.8855 506.591C82.5061 508.934 84.1884 514.182 88.2909 514.049C133.064 512.649 153.946 490.76 156.573 481.591C155.673 487.384 154.359 491.969 152.898 495.55C151.393 499.25 155.466 502.67 158.845 500.547C171.419 492.676 187.179 478.201 188.227 454.735C178.93 441.69 149.002 416.646 149.002 416.646Z" fill="#D6B05A"/>
<path opacity="0.2" d="M149.002 416.646C115.651 419.358 104.598 440.687 100.82 469.033C98.9014 483.493 98.0454 498.115 85.8855 506.591C82.5061 508.934 84.1884 514.182 88.2909 514.049C133.064 512.649 153.946 490.76 156.573 481.591C155.673 487.384 154.359 491.969 152.898 495.55C151.393 499.25 155.466 502.67 158.845 500.547C171.419 492.676 187.179 478.201 188.227 454.735C178.93 441.69 149.002 416.646 149.002 416.646Z" fill="#D6B05A"/>
<path d="M193.348 464.832L139.941 411.472L168.393 405.326L199.502 436.398L193.348 464.832Z" fill="#4065B9"/>
</g>
<defs>
<clipPath id="clip0_1_173">
<rect width="621" height="575" fill="white" transform="translate(0.5)"/>
</clipPath>
</defs>
</svg>
