<svg xmlns="http://www.w3.org/2000/svg" width="30.491" height="30.491" viewBox="0 0 30.491 30.491">
  <g id="Group_66761" data-name="Group 66761" transform="translate(-1168 -1709)">
    <path id="books-library" d="M3.525,8.1A1.529,1.529,0,0,0,2,9.623V29.442a3.058,3.058,0,0,0,3.049,3.049H24.869a1.525,1.525,0,1,0,0-3.049H6.574a1.529,1.529,0,0,1-1.525-1.525V9.623A1.529,1.529,0,0,0,3.525,8.1ZM29.442,2H11.147A3.058,3.058,0,0,0,8.1,5.049V23.344a3.058,3.058,0,0,0,3.049,3.049H29.442a3.058,3.058,0,0,0,3.049-3.049V5.049A3.058,3.058,0,0,0,29.442,2ZM26.393,15.721H14.2a1.525,1.525,0,1,1,0-3.049h12.2a1.525,1.525,0,1,1,0,3.049Zm-6.1,6.1H14.2a1.525,1.525,0,1,1,0-3.049h6.1a1.525,1.525,0,0,1,0,3.049Zm6.1-12.2H14.2a1.525,1.525,0,1,1,0-3.049h12.2a1.525,1.525,0,1,1,0,3.049Z" transform="translate(1166 1707)" fill="#fff"/>
  </g>
</svg>
