<svg xmlns="http://www.w3.org/2000/svg" width="33.092" height="30.491" viewBox="0 0 33.092 30.491">
  <g id="Group_66763" data-name="Group 66763" transform="translate(-888 -1708)">
    <path id="training" d="M5.583,11.009a3,3,0,1,0-3-3A3,3,0,0,0,5.583,11.009Zm2.849,1.6H2.74A2.745,2.745,0,0,0,0,15.347v6.912a.9.9,0,1,0,1.794,0V17.72a.434.434,0,0,1,.869,0V31.756a1.243,1.243,0,0,0,2.487.005V24.275a.434.434,0,0,1,.869,0v7.491a1.236,1.236,0,1,0,2.471,0V17.72a.434.434,0,0,1,.869,0v4.518l.005.016a.9.9,0,1,0,1.8,0V15.347A2.729,2.729,0,0,0,8.432,12.607ZM13.86,4.066H32.549a.733.733,0,0,0,.512-.775c0-.429-.258-.781-.574-.781h-18.6c-.315,0-.574.352-.574.781A.727.727,0,0,0,13.86,4.066ZM32.808,16.334a.186.186,0,0,0-.052-.036c-.01-.005-.016-.01-.026-.016a.4.4,0,0,0-.279-.047H13.86c-.284-.067-.538.279-.538.708a.72.72,0,0,0,.538.775h5.49L16.512,28.457a.708.708,0,0,0,1.37.357l2.8-10.572.109-.4a.42.42,0,0,0,.005-.114h1.716V27.01a.708.708,0,0,0,1.417,0V17.725h1.722a.838.838,0,0,0,.005.114l.109.4,2.8,10.583a.7.7,0,0,0,.688.522.748.748,0,0,0,.181-.021A.7.7,0,0,0,29.856,29a.722.722,0,0,0,.072-.538L27.085,17.725h5.464a.713.713,0,0,0,.5-.719.6.6,0,0,0,.041-.191A.574.574,0,0,0,32.808,16.334ZM32,15.424V4.883H14.434V15.424Zm-4.043-9.1a.532.532,0,1,1,1.065,0v7.651a.532.532,0,1,1-1.065,0Zm-3.484,1.99a.5.5,0,0,1,1,0v5.532a.5.5,0,1,1-1,0Zm-3.526,1.747a.512.512,0,0,1,1.024,0v3.883a.512.512,0,0,1-1.024,0Zm-3.479,1.52a.476.476,0,1,1,.951,0V13.9a.476.476,0,1,1-.951,0Z" transform="translate(888 1705.49)" fill="#fff"/>
  </g>
</svg>
