<svg id="Component_2_1" data-name="Component 2 – 1" xmlns="http://www.w3.org/2000/svg" width="190.728" height="53.43" viewBox="0 0 190.728 53.43">
  <g id="Group_66839" data-name="Group 66839">
    <g id="Group_66692" data-name="Group 66692" transform="translate(0 0.465)">
      <g id="Group_66690" data-name="Group 66690" transform="translate(0)">
        <path id="Path_222" data-name="Path 222" d="M179.672,467.689V466l3.357-3.392H188.1v5.076Zm34.192,8.4V464.73l4.515,6.472H221.2l4.419-6.472v11.356H229V459.244h-3.26l-5.988,8.156-5.892-8.156h-3.381v16.841Zm-5.312-16.841H193.387v3.368H203.5l-10.117,10.1v3.368h15.164v-3.368H198.434l10.117-10.1Zm-28.88,16.841v-5.028H188.1v5.028h3.356V459.244H181.338l-5.047,5.077v11.765Z" transform="translate(-176.291 -459.244)" fill="#4065b9" fill-rule="evenodd"/>
        <path id="Path_223" data-name="Path 223" d="M369.02,467.689v-5.076h8.427v5.076Zm11.784,8.4v-3.368l-1.666-1.66,1.666-1.684v-8.42l-1.666-1.708h-13.5v16.841h3.38v-5.028h5.046l1.69,1.66,1.69,1.708v1.66Zm-29.363-8.4V466l3.356-3.392h5.071v5.076Zm0,8.4v-5.028h8.427v5.028h3.356V459.244H353.107l-5.047,5.077v11.765Zm-9.731,0V462.612h5.868v-3.368H332.414v3.368h5.916v13.473Zm-12.653,0,1.666-1.66v-6.761l-1.666-1.684H318.94v-3.368h8.427V464.3h3.356v-3.344l-1.666-1.708H317.225l-1.666,1.708v7.217l1.666,1.2h10.141v3.344H318.94v-1.66h-3.381v3.368l1.666,1.66Z" transform="translate(-250.773 -459.244)" fill="#d6b05a" fill-rule="evenodd"/>
      </g>
      <g id="Group_66689" data-name="Group 66689" transform="translate(0 24.19)">
        <path id="Path_174" data-name="Path 174" d="M234.048,307.581l4.532,2.06-2.057,4.529-4.548-2.062,2.073-4.527" transform="translate(-108.67 -306.119)" fill="#e6e6e6"/>
        <path id="Path_224" data-name="Path 224" d="M224.043,512.309a.394.394,0,0,1,.371-.371H225.7a.363.363,0,0,1,.256.115.358.358,0,0,1,.1.256v5.678a4.258,4.258,0,0,1-.218,1.422,2.726,2.726,0,0,1-.6,1.012,2.422,2.422,0,0,1-.9.564,3.665,3.665,0,0,1-1.141.18,5.538,5.538,0,0,1-1.333-.18,8.359,8.359,0,0,1-1.4-.564l.538-1.525c.243.1.513.192.82.294a3.293,3.293,0,0,0,.9.128,1.636,1.636,0,0,0,.935-.269,1.278,1.278,0,0,0,.385-1.063Zm-6.588-4.024a.343.343,0,0,1,.115-.256.323.323,0,0,1,.256-.115h1.282a.363.363,0,0,1,.257.115.383.383,0,0,1,.1.256v8.241a1.4,1.4,0,0,1-.423,1.025,1.467,1.467,0,0,1-1.038.436h-1.551a.548.548,0,0,1-.564-.551v-.91a.582.582,0,0,1,.154-.41.61.61,0,0,1,.41-.141h1Zm-5.588,8.241a.582.582,0,0,1,.154-.41.61.61,0,0,1,.41-.141h1v-7.69a.343.343,0,0,1,.115-.256.323.323,0,0,1,.256-.115h1.282a.362.362,0,0,1,.256.115.382.382,0,0,1,.1.256v7.69h1.012v2.012h-4.024a.548.548,0,0,1-.564-.551Zm-5.5,0a.583.583,0,0,1,.154-.41.6.6,0,0,1,.4-.141h1.743v-3.666a.365.365,0,0,1,.115-.256.313.313,0,0,1,.256-.1h1.282a.347.347,0,0,1,.256.1.408.408,0,0,1,.1.256v3.666h1.743v2.012h-5.5a.515.515,0,0,1-.4-.167.521.521,0,0,1-.154-.384Zm3.025-6.69a.716.716,0,0,1,.295-.577,1.161,1.161,0,0,1,1.423,0,.725.725,0,0,1,0,1.167,1.161,1.161,0,0,1-1.423,0A.722.722,0,0,1,209.394,509.835Zm-2.371,0a.716.716,0,0,1,.295-.577,1.161,1.161,0,0,1,1.423,0,.725.725,0,0,1,0,1.167,1.161,1.161,0,0,1-1.423,0A.722.722,0,0,1,207.023,509.835Zm-3.127,6.139V514.5a1.1,1.1,0,0,0-.487-1.025,2.269,2.269,0,0,0-1.153-.295,5.39,5.39,0,0,0-.641.039c-.243.038-.461.09-.666.141l-.436-1.794a6.563,6.563,0,0,1,2.089-.359,4.643,4.643,0,0,1,1.294.18,3.223,3.223,0,0,1,1.064.6,2.731,2.731,0,0,1,.692,1.038,3.941,3.941,0,0,1,.256,1.474v1.474h1.013v2.012h-6.78v-2.012Zm-9.227,3.255a1.791,1.791,0,0,0,.525.09,1.149,1.149,0,0,0,.859-.333,1.349,1.349,0,0,0,.334-1v-5.678a.394.394,0,0,1,.371-.371h1.282a.364.364,0,0,1,.256.115.358.358,0,0,1,.1.256v5.678a4.258,4.258,0,0,1-.218,1.422,2.522,2.522,0,0,1-.6.987,2.459,2.459,0,0,1-.9.577,3.664,3.664,0,0,1-1.141.18,5.371,5.371,0,0,1-1.333-.18Zm-4.973-2.7a.582.582,0,0,1,.154-.41.6.6,0,0,1,.4-.141h1.743v-3.666a.363.363,0,0,1,.115-.256.312.312,0,0,1,.256-.1h1.282a.348.348,0,0,1,.256.1.41.41,0,0,1,.1.256v4.217a1.4,1.4,0,0,1-.423,1.025,1.467,1.467,0,0,1-1.038.436h-2.294a.514.514,0,0,1-.4-.167.52.52,0,0,1-.154-.384Zm2.563,3.383a.723.723,0,0,1,.295-.589,1.16,1.16,0,0,1,1.423,0,.724.724,0,0,1,0,1.166,1.161,1.161,0,0,1-1.423,0A.718.718,0,0,1,192.259,519.909Zm-2.371,0a.723.723,0,0,1,.295-.589,1.061,1.061,0,0,1,.718-.244,1.05,1.05,0,0,1,.7.244.724.724,0,0,1,0,1.166,1.05,1.05,0,0,1-.7.243,1.061,1.061,0,0,1-.718-.243A.718.718,0,0,1,189.888,519.909Zm.359-3.935v2.012H178.622a1.394,1.394,0,0,1-1.025-.436,1.366,1.366,0,0,1-.436-1.025v-4.217a.347.347,0,0,1,.1-.256.329.329,0,0,1,.256-.1H178.8a.33.33,0,0,1,.256.1.365.365,0,0,1,.115.256v3.666h8.061v-3.666a.347.347,0,0,1,.1-.256.329.329,0,0,1,.256-.1h1.282a.33.33,0,0,1,.256.1.365.365,0,0,1,.115.256v3.666ZM182.2,520.46a.691.691,0,0,1,.294-.59,1.028,1.028,0,0,1,.705-.243,1.059,1.059,0,0,1,.717.243.724.724,0,0,1,0,1.167,1.059,1.059,0,0,1-.717.243,1.028,1.028,0,0,1-.705-.243A.684.684,0,0,1,182.2,520.46Z" transform="translate(-177.161 -507.541)" fill="#4065b9"/>
        <path id="Path_225" data-name="Path 225" d="M318.928,518.909c.243.09.513.18.82.269a3.4,3.4,0,0,0,.923.128,2.016,2.016,0,0,0,.487-.051,1.314,1.314,0,0,0,.423-.218,1.371,1.371,0,0,0,.282-.41,1.806,1.806,0,0,0,.1-.641v-5.678a.364.364,0,0,1,.115-.256.313.313,0,0,1,.256-.1h1.282a.349.349,0,0,1,.256.1.408.408,0,0,1,.1.256v3.666h1.012v2.012h-1.012a4.258,4.258,0,0,1-.218,1.422,2.576,2.576,0,0,1-.6,1,2.428,2.428,0,0,1-.9.564,3.665,3.665,0,0,1-1.141.18,5.538,5.538,0,0,1-1.333-.18,7.338,7.338,0,0,1-1.4-.551Zm3.038-9.074a.717.717,0,0,1,.294-.577,1.162,1.162,0,0,1,1.423,0,.725.725,0,0,1,0,1.167,1.162,1.162,0,0,1-1.423,0A.723.723,0,0,1,321.965,509.835Zm-4.4,4.294c-.154-.051-.308-.09-.436-.128a2.419,2.419,0,0,0-.385-.038,1.594,1.594,0,0,0-.846.218.673.673,0,0,0-.346.6v1.192h2.012Zm-4.025.564a2.569,2.569,0,0,1,.295-1.23,2.743,2.743,0,0,1,.769-.859,3.329,3.329,0,0,1,1.1-.487,4.63,4.63,0,0,1,1.256-.167,4.708,4.708,0,0,1,1.384.205,3.742,3.742,0,0,1,1.23.641v5.191h-4.024v2.2h-2.012Zm-13.56-2.384a.349.349,0,0,1,.1-.256.329.329,0,0,1,.256-.1h1.282a.329.329,0,0,1,.256.1.364.364,0,0,1,.115.256v3.666h1.653v-3.666a.41.41,0,0,1,.1-.256.33.33,0,0,1,.256-.1h1.282a.33.33,0,0,1,.256.1.365.365,0,0,1,.115.256v3.666h1.653v-3.666a.41.41,0,0,1,.1-.256.33.33,0,0,1,.256-.1h1.282a.329.329,0,0,1,.256.1.363.363,0,0,1,.115.256v4.217a1.4,1.4,0,0,1-.423,1.025,1.473,1.473,0,0,1-1.051.436h-9.612a.541.541,0,0,1-.41-.167.566.566,0,0,1-.141-.384v-.91a.494.494,0,0,1,.551-.551h1.743Zm-7.792,4.217a.584.584,0,0,1,.153-.41.6.6,0,0,1,.4-.141h1.743v-3.666a.365.365,0,0,1,.115-.256.313.313,0,0,1,.256-.1h1.282a.347.347,0,0,1,.256.1.408.408,0,0,1,.1.256v3.666h1.743v2.012h-5.5a.515.515,0,0,1-.4-.167.521.521,0,0,1-.153-.384Zm3.024-6.69a.717.717,0,0,1,.295-.577,1.061,1.061,0,0,1,.718-.243,1.049,1.049,0,0,1,.7.243.724.724,0,0,1,0,1.167,1.049,1.049,0,0,1-.7.243,1.061,1.061,0,0,1-.718-.243A.724.724,0,0,1,295.217,509.835Zm-2.371,0a.717.717,0,0,1,.294-.577,1.061,1.061,0,0,1,.718-.243,1.051,1.051,0,0,1,.705.243.725.725,0,0,1,0,1.167,1.051,1.051,0,0,1-.705.243,1.061,1.061,0,0,1-.718-.243A.723.723,0,0,1,292.846,509.835Zm-1.461-1.922a.362.362,0,0,1,.256.115.381.381,0,0,1,.1.256v7.69h1.013v2.012H290.1a.322.322,0,0,1-.256-.115.343.343,0,0,1-.115-.256v-9.331a.343.343,0,0,1,.115-.256.322.322,0,0,1,.256-.115Z" transform="translate(-236.311 -507.541)" fill="#4065b9"/>
        <path id="Path_226" data-name="Path 226" d="M388.225,518.644c.243.09.513.18.82.269a3.4,3.4,0,0,0,.923.128,2.019,2.019,0,0,0,.487-.051,1.312,1.312,0,0,0,.423-.218,1.369,1.369,0,0,0,.282-.41,1.808,1.808,0,0,0,.1-.641v-5.678a.364.364,0,0,1,.115-.256.313.313,0,0,1,.256-.1h1.282a.349.349,0,0,1,.257.1.41.41,0,0,1,.1.256v3.666h1.012v2.012h-1.012a4.258,4.258,0,0,1-.218,1.422,2.581,2.581,0,0,1-.6,1,2.428,2.428,0,0,1-.9.564,3.665,3.665,0,0,1-1.141.18,5.537,5.537,0,0,1-1.333-.18,7.334,7.334,0,0,1-1.4-.551Zm-5.845-.922a.527.527,0,0,1-.551-.551v-.91a.637.637,0,0,1,.141-.41.662.662,0,0,1,.41-.141h4.486v-.949a1.292,1.292,0,0,0-.487-1.128,2.293,2.293,0,0,0-1.192-.307,3.46,3.46,0,0,0-1.217.205c-.026-.077-.077-.193-.141-.372a3.888,3.888,0,0,1-.18-.513c-.077-.179-.141-.346-.205-.512s-.115-.269-.141-.347l4.345-4.37,1.435,1.423-2.653,2.679a3.021,3.021,0,0,1,1.769.961,3.415,3.415,0,0,1,.679,2.281v2.589a.382.382,0,0,1-.1.256.363.363,0,0,1-.256.115Zm-3.024-4.024H378.01l-.782,2.012h2.128Zm-2.564,4.024a2.084,2.084,0,0,1-1.41-.385,1.2,1.2,0,0,1-.423-.949,2.76,2.76,0,0,1,.218-.987l1.012-2.551a1.8,1.8,0,0,1,.654-.833,1.635,1.635,0,0,1,1.051-.333h3.114a.35.35,0,0,1,.359.359v3.666h1.012v2.012Zm2.474-8.152a.717.717,0,0,1,.294-.577,1.061,1.061,0,0,1,.718-.243,1.048,1.048,0,0,1,.7.243.724.724,0,0,1,0,1.167,1.048,1.048,0,0,1-.7.243,1.061,1.061,0,0,1-.718-.243A.723.723,0,0,1,379.266,509.57Zm-2.371,0a.717.717,0,0,1,.295-.577,1.061,1.061,0,0,1,.718-.243,1.048,1.048,0,0,1,.7.243.724.724,0,0,1,0,1.167,1.048,1.048,0,0,1-.7.243,1.061,1.061,0,0,1-.718-.243A.723.723,0,0,1,376.895,509.57Zm-13.38,6.69a.568.568,0,0,1,.141-.385.5.5,0,0,1,.41-.167h1.487a2.382,2.382,0,0,1-.461-.795,2.035,2.035,0,0,1-.167-.82,2.533,2.533,0,0,1,.256-1.141,2.5,2.5,0,0,1,.667-.808,2.732,2.732,0,0,1,.961-.487,3.917,3.917,0,0,1,1.179-.167,5.058,5.058,0,0,1,1.295.167,5.261,5.261,0,0,1,1.243.525l-.73,1.576a7.744,7.744,0,0,0-.731-.269,2.908,2.908,0,0,0-.859-.128,1.479,1.479,0,0,0-.859.256.835.835,0,0,0-.372.731,1.251,1.251,0,0,0,.423.935,1.624,1.624,0,0,0,1.2.423h2.269l-.4,2.012h-6.408a.541.541,0,0,1-.41-.167.566.566,0,0,1-.141-.384Z" transform="translate(-274.954 -507.276)" fill="#4065b9"/>
        <path id="Path_227" data-name="Path 227" d="M429.967,511.881a.364.364,0,0,1,.115-.256.313.313,0,0,1,.256-.1h1.282a.347.347,0,0,1,.256.1.408.408,0,0,1,.1.256v3.666h1.64v-3.666a.364.364,0,0,1,.115-.256.313.313,0,0,1,.256-.1h1.282a.347.347,0,0,1,.256.1.408.408,0,0,1,.1.256v3.666h1.653v-3.666a.364.364,0,0,1,.115-.256.312.312,0,0,1,.256-.1h1.282a.347.347,0,0,1,.256.1.408.408,0,0,1,.1.256V516.1a1.4,1.4,0,0,1-.423,1.025,1.465,1.465,0,0,1-1.038.436h-9.612a.515.515,0,0,1-.4-.167.521.521,0,0,1-.154-.384v-.91a.583.583,0,0,1,.154-.41.6.6,0,0,1,.4-.141h1.743Zm3.653-3.947a.717.717,0,0,1,.295-.577,1.06,1.06,0,0,1,.718-.243,1.05,1.05,0,0,1,.7.243.724.724,0,0,1,0,1.166,1.05,1.05,0,0,1-.7.244,1.061,1.061,0,0,1-.718-.244A.723.723,0,0,1,433.619,507.934Zm1.192,1.833a.717.717,0,0,1,.294-.577,1.06,1.06,0,0,1,.718-.244,1.05,1.05,0,0,1,.7.244.724.724,0,0,1,0,1.166,1.05,1.05,0,0,1-.7.244,1.061,1.061,0,0,1-.718-.244A.723.723,0,0,1,434.812,509.767Zm-2.384,0a.716.716,0,0,1,.295-.577,1.159,1.159,0,0,1,1.423,0,.724.724,0,0,1,0,1.166,1.16,1.16,0,0,1-1.423,0A.722.722,0,0,1,432.428,509.767Z" transform="translate(-309.267 -507.114)" fill="#4065b9"/>
      </g>
      <g id="Group_66691" data-name="Group 66691" transform="translate(0 43.262)">
        <path id="Path_228" data-name="Path 228" d="M225.3,550.845a.29.29,0,0,1-.079.2.279.279,0,0,1-.2.089h-.984a.249.249,0,0,1-.2-.089.262.262,0,0,1-.088-.2v-5.7h-1.683a.3.3,0,0,1-.285-.285v-.905a.262.262,0,0,1,.088-.2.275.275,0,0,1,.2-.079h4.92a.312.312,0,0,1,.2.079.293.293,0,0,1,.079.2v.905a.274.274,0,0,1-.079.2.278.278,0,0,1-.2.088H225.3Zm-8.757-4.143c.039-.02.128-.069.285-.158a5.5,5.5,0,0,1,.521-.236,5.787,5.787,0,0,1,.62-.226,1.774,1.774,0,0,1,.561-.1,1.05,1.05,0,0,1,.639.2.894.894,0,0,1,.256.748v.964a.248.248,0,0,1-.088.2.262.262,0,0,1-.2.088h-1.26v-.492a.247.247,0,0,0-.1-.236.47.47,0,0,0-.236-.059.825.825,0,0,0-.266.04,2.761,2.761,0,0,0-.3.1c-.089.039-.177.079-.246.118a.632.632,0,0,0-.187.1v3.1a.305.305,0,0,1-.285.285h-.975a.3.3,0,0,1-.285-.285v-4.635a.3.3,0,0,1,.285-.285h1.26Zm-4.211,2.164a3.582,3.582,0,0,0-.433.029,2.181,2.181,0,0,0-.453.1,1.165,1.165,0,0,0-.364.236.565.565,0,0,0-.158.423h1.407Zm-2.952.571a1.172,1.172,0,0,1,.167-.6,1.411,1.411,0,0,1,.5-.492,3.063,3.063,0,0,1,.915-.344,7.572,7.572,0,0,1,1.358-.108.573.573,0,0,0-.286-.521,1.531,1.531,0,0,0-.669-.138,3.284,3.284,0,0,0-.905.128,4.573,4.573,0,0,0-.8.295l-.286-1.171a5.18,5.18,0,0,1,1.142-.4,4.751,4.751,0,0,1,1.181-.157,3.353,3.353,0,0,1,.836.1,1.776,1.776,0,0,1,1.171,1.023,2.892,2.892,0,0,1,.167,1.023v2.775a.305.305,0,0,1-.286.285H210.5a1.088,1.088,0,0,1-.787-.335,1.056,1.056,0,0,1-.334-.8Zm-2.7-5.756a.312.312,0,0,1,.2.079.292.292,0,0,1,.079.2v.817h1.22a.274.274,0,0,1,.2.079.278.278,0,0,1,.088.2v.915a.3.3,0,0,1-.285.286h-1.22v2.479a.884.884,0,0,0,.285.748,1.1,1.1,0,0,0,.7.226h.167a.482.482,0,0,0,.157-.03l.334,1.309a3.946,3.946,0,0,1-.531.108,3.163,3.163,0,0,1-.521.04,2.142,2.142,0,0,1-1.535-.581,2.465,2.465,0,0,1-.6-1.83v-4.763a.262.262,0,0,1,.088-.2.275.275,0,0,1,.2-.079Zm-2.263,5.481a1.848,1.848,0,0,1-.207.915,1.785,1.785,0,0,1-.58.6,2.363,2.363,0,0,1-.827.334,3.85,3.85,0,0,1-.955.118,5.085,5.085,0,0,1-1.023-.1,5.277,5.277,0,0,1-.935-.266l.453-1.308a3.322,3.322,0,0,0,.7.2,3.821,3.821,0,0,0,.807.089,1.842,1.842,0,0,0,.728-.138.459.459,0,0,0,.3-.453.681.681,0,0,0-.236-.482,4.572,4.572,0,0,0-.59-.433c-.246-.147-.5-.3-.787-.482a4.309,4.309,0,0,1-.768-.542,2.649,2.649,0,0,1-.61-.679,1.618,1.618,0,0,1-.236-.875,1.919,1.919,0,0,1,.207-.925,1.754,1.754,0,0,1,.581-.62,2.791,2.791,0,0,1,.817-.335,4.152,4.152,0,0,1,.944-.1,5.453,5.453,0,0,1,1.053.1,6.019,6.019,0,0,1,.925.286l-.453,1.3a5.051,5.051,0,0,0-.689-.2,4.45,4.45,0,0,0-.8-.079,1.783,1.783,0,0,0-.728.128.479.479,0,0,0-.315.472.59.59,0,0,0,.236.443,3.607,3.607,0,0,0,.61.413c.226.158.492.305.768.472a5.731,5.731,0,0,1,.787.561,3,3,0,0,1,.59.689,1.687,1.687,0,0,1,.236.9m-13.638-2.529a5.809,5.809,0,0,1,.915-.5,2.324,2.324,0,0,1,.925-.206,1.174,1.174,0,0,1,.659.186,1.281,1.281,0,0,1,.443.64,6.647,6.647,0,0,1,.994-.59,2.4,2.4,0,0,1,.994-.236,1.158,1.158,0,0,1,.492.1,1.07,1.07,0,0,1,.394.305,1.791,1.791,0,0,1,.266.551,3.033,3.033,0,0,1,.1.847v3.119a.251.251,0,0,1-.079.2.263.263,0,0,1-.2.089h-.984a.305.305,0,0,1-.286-.285v-2.9a.54.54,0,0,0-.57-.649,1.3,1.3,0,0,0-.541.128,1.478,1.478,0,0,0-.433.275v3.149a.251.251,0,0,1-.079.2.262.262,0,0,1-.2.089h-.984a.3.3,0,0,1-.285-.285v-2.9a.541.541,0,0,0-.571-.649,1.3,1.3,0,0,0-.541.128,1.481,1.481,0,0,0-.433.275v3.149a.253.253,0,0,1-.079.2.263.263,0,0,1-.2.089h-.984a.263.263,0,0,1-.2-.089.251.251,0,0,1-.079-.2v-4.635a.252.252,0,0,1,.079-.2.262.262,0,0,1,.2-.088h1.26Zm-6.9,4.5c-.187,0-.275-.059-.275-.187a.545.545,0,0,1,.089-.236l2.037-3.267h-1.85a.3.3,0,0,1-.285-.285v-.945a.262.262,0,0,1,.088-.2.247.247,0,0,1,.2-.088h4.1q.266,0,.266.177a.5.5,0,0,1-.088.246l-2.007,3.277h1.8a.311.311,0,0,1,.2.079.266.266,0,0,1,.079.2v.945a.251.251,0,0,1-.079.2.278.278,0,0,1-.2.089Zm-2.814-3.867v-1.24a.665.665,0,0,0-.334-.6,1.517,1.517,0,0,0-.748-.2,1.374,1.374,0,0,0-.708.2.654.654,0,0,0-.325.6v1.24Zm1.545,3.582a.305.305,0,0,1-.286.285h-.974a.3.3,0,0,1-.285-.285v-2.037h-2.116v2.037a.3.3,0,0,1-.285.285H177.7a.305.305,0,0,1-.286-.285v-4.851a2.242,2.242,0,0,1,.227-1.023,2.1,2.1,0,0,1,.581-.728,2.64,2.64,0,0,1,.827-.423,3.325,3.325,0,0,1,.944-.138,3.573,3.573,0,0,1,.964.138,3.126,3.126,0,0,1,.846.433,2.177,2.177,0,0,1,.59.738,2.153,2.153,0,0,1,.227,1Z" transform="translate(-177.413 -543.682)" fill="#999"/>
        <path id="Path_229" data-name="Path 229" d="M362.321,551.131a2.989,2.989,0,0,1-.167,1.033,1.926,1.926,0,0,1-.462.7,1.9,1.9,0,0,1-.718.394,2.987,2.987,0,0,1-.915.128,5.665,5.665,0,0,1-1.014-.108,5.755,5.755,0,0,1-1.082-.344l.423-1.122a4.544,4.544,0,0,0,.64.2,3.175,3.175,0,0,0,.669.068,1.489,1.489,0,0,0,.777-.2.837.837,0,0,0,.305-.748v-.384a3.324,3.324,0,0,1-1.348.325,1.655,1.655,0,0,1-1.25-.522,2.392,2.392,0,0,1-.492-1.673v-2.667a.3.3,0,0,1,.286-.285h.974a.3.3,0,0,1,.285.285v2.962a.536.536,0,0,0,.2.472.846.846,0,0,0,.482.138,1.325,1.325,0,0,0,.462-.088,1.683,1.683,0,0,0,.4-.177v-3.306a.3.3,0,0,1,.286-.285h.974a.3.3,0,0,1,.286.285Zm-8.954-4.6a4.727,4.727,0,0,1,.866-.433,2.571,2.571,0,0,1,.886-.167,1.547,1.547,0,0,1,.571.1,1.2,1.2,0,0,1,.482.354,2.081,2.081,0,0,1,.325.61,3.669,3.669,0,0,1,.108.945v2.913a.305.305,0,0,1-.286.285h-.974a.3.3,0,0,1-.285-.285v-2.923a.644.644,0,0,0-.207-.541,1.025,1.025,0,0,0-.512-.138,1.518,1.518,0,0,0-.551.1,1.562,1.562,0,0,0-.423.256v3.247a.305.305,0,0,1-.286.285h-.974a.3.3,0,0,1-.285-.285v-4.635a.3.3,0,0,1,.285-.285h1.26Zm-4.211,2.342a3.581,3.581,0,0,0-.433.029,2.18,2.18,0,0,0-.453.1,1.172,1.172,0,0,0-.364.236.567.567,0,0,0-.157.423h1.407Zm-2.952.571a1.172,1.172,0,0,1,.167-.6,1.413,1.413,0,0,1,.5-.492,3.073,3.073,0,0,1,.915-.344,7.582,7.582,0,0,1,1.358-.108.573.573,0,0,0-.286-.521,1.531,1.531,0,0,0-.669-.138,3.284,3.284,0,0,0-.905.128,4.574,4.574,0,0,0-.8.295l-.286-1.171a5.18,5.18,0,0,1,1.142-.4,4.751,4.751,0,0,1,1.181-.157,3.356,3.356,0,0,1,.836.1,1.778,1.778,0,0,1,1.171,1.023,2.892,2.892,0,0,1,.167,1.023v2.775a.305.305,0,0,1-.286.285h-3.09a1.087,1.087,0,0,1-.787-.335,1.056,1.056,0,0,1-.334-.8Zm-4.221,3.66a.305.305,0,0,1-.286.286h-.974a.3.3,0,0,1-.285-.286v-6.888a.3.3,0,0,1,.285-.285h2.086a2.546,2.546,0,0,1,1.092.226,2.407,2.407,0,0,1,.8.59,2.479,2.479,0,0,1,.492.817,2.8,2.8,0,0,1,.167.944,2.521,2.521,0,0,1-.158.9,2.145,2.145,0,0,1-.462.777,2.263,2.263,0,0,1-.8.531,2.775,2.775,0,0,1-1.142.217h-.816Zm.777-3.719a1.052,1.052,0,0,0,.8-.285.807.807,0,0,0,.256-.591,1.1,1.1,0,0,0-.266-.708.962.962,0,0,0-.787-.324h-.777v1.909Zm-9.633-2.745a5.811,5.811,0,0,1,.915-.5,2.324,2.324,0,0,1,.925-.206,1.175,1.175,0,0,1,.659.186,1.281,1.281,0,0,1,.443.64,6.648,6.648,0,0,1,.994-.59,2.4,2.4,0,0,1,.994-.236,1.158,1.158,0,0,1,.492.1,1.07,1.07,0,0,1,.394.305,1.8,1.8,0,0,1,.266.551,3.031,3.031,0,0,1,.1.847v3.119a.251.251,0,0,1-.079.2.263.263,0,0,1-.2.089h-.984a.305.305,0,0,1-.286-.285v-2.9a.541.541,0,0,0-.571-.649,1.3,1.3,0,0,0-.541.128,1.478,1.478,0,0,0-.433.275v3.149a.252.252,0,0,1-.079.2.262.262,0,0,1-.2.089h-.984a.3.3,0,0,1-.285-.285v-2.9a.541.541,0,0,0-.571-.649,1.3,1.3,0,0,0-.541.128,1.482,1.482,0,0,0-.433.275v3.149a.253.253,0,0,1-.079.2.263.263,0,0,1-.2.089h-.984a.263.263,0,0,1-.2-.089.251.251,0,0,1-.079-.2v-4.635a.252.252,0,0,1,.079-.2.262.262,0,0,1,.2-.088h1.26Zm-5.461.826a1.392,1.392,0,0,0-.511.089c-.148.049-.227.186-.227.4v1.171a.376.376,0,0,0,.227.393,1.222,1.222,0,0,0,.531.1h.541a1.679,1.679,0,0,0,.561-.089.371.371,0,0,0,.256-.4v-1.171a.414.414,0,0,0-.207-.394,1.145,1.145,0,0,0-.5-.1Zm.669-1.535a2.817,2.817,0,0,1,.875.127,2.207,2.207,0,0,1,.718.394,1.784,1.784,0,0,1,.492.62,2.03,2.03,0,0,1,.167.827v1.27a2.028,2.028,0,0,1-.167.826,1.785,1.785,0,0,1-.492.62,2.176,2.176,0,0,1-.718.384,2.818,2.818,0,0,1-.875.138h-.7a2.818,2.818,0,0,1-.876-.138,2.277,2.277,0,0,1-.718-.384,1.631,1.631,0,0,1-.473-.62,1.761,1.761,0,0,1-.187-.826v-1.27a1.762,1.762,0,0,1,.187-.827,1.63,1.63,0,0,1,.473-.62,2.312,2.312,0,0,1,.718-.394,2.817,2.817,0,0,1,.876-.127Zm-5.491,2.745a.3.3,0,0,1,.286-.286h.974a.3.3,0,0,1,.285.286v.364a1.917,1.917,0,0,1-.226.944,1.975,1.975,0,0,1-.59.649,2.345,2.345,0,0,1-.827.374,3.585,3.585,0,0,1-.974.128,3.494,3.494,0,0,1-.955-.128,2.461,2.461,0,0,1-.817-.364,1.895,1.895,0,0,1-.817-1.6v-3.247a1.957,1.957,0,0,1,.227-.955,1.868,1.868,0,0,1,.59-.649,2.708,2.708,0,0,1,.817-.384,4.442,4.442,0,0,1,.955-.108,4.553,4.553,0,0,1,.974.108,2.77,2.77,0,0,1,.827.384,2.1,2.1,0,0,1,.59.659,1.918,1.918,0,0,1,.226.945v.354a.28.28,0,0,1-.088.2.292.292,0,0,1-.2.079h-.974a.293.293,0,0,1-.2-.079.28.28,0,0,1-.088-.2V545.9a.54.54,0,0,0-.325-.5,1.683,1.683,0,0,0-.728-.167,1.632,1.632,0,0,0-.738.167.543.543,0,0,0-.325.512v3.021a.517.517,0,0,0,.325.492,1.633,1.633,0,0,0,.738.167,1.684,1.684,0,0,0,.728-.167.517.517,0,0,0,.325-.492Zm-8.029-1.092a2.48,2.48,0,0,0-.659-.108.939.939,0,0,0-.62.207.775.775,0,0,0-.266.64v1.269h1.545Zm-2.391,4.231a4.545,4.545,0,0,0,.64.2,3.175,3.175,0,0,0,.669.068,1.408,1.408,0,0,0,.758-.206.828.828,0,0,0,.325-.738h-1.683a1.394,1.394,0,0,1-1.407-1.407v-1.407a2.43,2.43,0,0,1,.216-1.073,2.027,2.027,0,0,1,.531-.738,2.288,2.288,0,0,1,.787-.443,3.177,3.177,0,0,1,.925-.138,4.144,4.144,0,0,1,1.122.167,3.928,3.928,0,0,1,1.053.531v4.507a2.989,2.989,0,0,1-.167,1.033,1.925,1.925,0,0,1-.462.7,1.9,1.9,0,0,1-.718.394,2.987,2.987,0,0,1-.915.128,5.665,5.665,0,0,1-1.014-.108,5.753,5.753,0,0,1-1.082-.344Zm-4.88-5.284a4.727,4.727,0,0,1,.866-.433,2.571,2.571,0,0,1,.886-.167,1.547,1.547,0,0,1,.571.1,1.2,1.2,0,0,1,.482.354,2.081,2.081,0,0,1,.325.61,3.672,3.672,0,0,1,.108.945v2.913a.3.3,0,0,1-.286.285h-.974a.3.3,0,0,1-.285-.285v-2.923a.644.644,0,0,0-.207-.541,1.025,1.025,0,0,0-.512-.138,1.518,1.518,0,0,0-.551.1,1.569,1.569,0,0,0-.423.256v3.247a.3.3,0,0,1-.285.285h-.975a.3.3,0,0,1-.285-.285v-4.635a.3.3,0,0,1,.285-.285h1.26Zm-2.952-.6a.278.278,0,0,1,.2.088.292.292,0,0,1,.079.2v4.635a.29.29,0,0,1-.079.2.279.279,0,0,1-.2.089h-.984a.248.248,0,0,1-.2-.089.261.261,0,0,1-.089-.2v-4.635a.262.262,0,0,1,.089-.2.248.248,0,0,1,.2-.088Zm0-2.244a.312.312,0,0,1,.2.079.292.292,0,0,1,.079.2v.777a.274.274,0,0,1-.079.2.279.279,0,0,1-.2.089h-.984a.305.305,0,0,1-.286-.286v-.777a.263.263,0,0,1,.089-.2.275.275,0,0,1,.2-.079ZM299,546.526a4.728,4.728,0,0,1,.866-.433,2.571,2.571,0,0,1,.886-.167,1.547,1.547,0,0,1,.571.1,1.2,1.2,0,0,1,.482.354,2.083,2.083,0,0,1,.325.61,3.671,3.671,0,0,1,.108.945v2.913a.3.3,0,0,1-.286.285h-.974a.305.305,0,0,1-.285-.285v-2.923a.644.644,0,0,0-.207-.541,1.025,1.025,0,0,0-.512-.138,1.518,1.518,0,0,0-.551.1,1.569,1.569,0,0,0-.423.256v3.247a.305.305,0,0,1-.285.285h-.975a.3.3,0,0,1-.285-.285v-4.635a.3.3,0,0,1,.285-.285H299Zm-2.952-.6a.278.278,0,0,1,.2.088.292.292,0,0,1,.079.2v4.635a.291.291,0,0,1-.079.2.279.279,0,0,1-.2.089h-.984a.248.248,0,0,1-.2-.089.261.261,0,0,1-.089-.2v-4.635a.262.262,0,0,1,.089-.2.247.247,0,0,1,.2-.088Zm0-2.244a.312.312,0,0,1,.2.079.293.293,0,0,1,.079.2v.777a.274.274,0,0,1-.079.2.279.279,0,0,1-.2.089h-.984a.306.306,0,0,1-.286-.286v-.777a.263.263,0,0,1,.089-.2.274.274,0,0,1,.2-.079Zm-3.936,5.185a3.574,3.574,0,0,0-.433.029,2.18,2.18,0,0,0-.453.1,1.172,1.172,0,0,0-.364.236.565.565,0,0,0-.157.423h1.407Zm-2.952.571a1.176,1.176,0,0,1,.167-.6,1.419,1.419,0,0,1,.5-.492,3.073,3.073,0,0,1,.915-.344,7.58,7.58,0,0,1,1.358-.108.572.572,0,0,0-.285-.521,1.532,1.532,0,0,0-.669-.138,3.281,3.281,0,0,0-.9.128,4.579,4.579,0,0,0-.8.295l-.285-1.171a5.184,5.184,0,0,1,1.141-.4,4.757,4.757,0,0,1,1.181-.157,3.356,3.356,0,0,1,.836.1,1.778,1.778,0,0,1,1.171,1.023,2.9,2.9,0,0,1,.167,1.023v2.775a.3.3,0,0,1-.285.285h-3.09a1.086,1.086,0,0,1-.787-.335,1.055,1.055,0,0,1-.334-.8Zm-3.69-2.735c.039-.02.128-.069.285-.158a5.5,5.5,0,0,1,.521-.236,5.789,5.789,0,0,1,.62-.226,1.774,1.774,0,0,1,.561-.1,1.05,1.05,0,0,1,.639.2.894.894,0,0,1,.256.748v.964a.248.248,0,0,1-.088.2.262.262,0,0,1-.2.088h-1.259v-.492a.247.247,0,0,0-.1-.236.47.47,0,0,0-.236-.059.825.825,0,0,0-.266.04,2.76,2.76,0,0,0-.3.1c-.089.039-.177.079-.246.118a.632.632,0,0,0-.187.1v3.1a.3.3,0,0,1-.285.285h-.975a.3.3,0,0,1-.285-.285v-4.635a.3.3,0,0,1,.285-.285h1.26Z" transform="translate(-232.071 -543.682)" fill="#999"/>
      </g>
    </g>
    <g id="Group_66693" data-name="Group 66693" transform="translate(139.396)">
      <path id="Path_230" data-name="Path 230" d="M400.3,338.947l2.425-1.324,1.331,2.415-2.423,1.331-1.334-2.422" transform="translate(-357.745 -303.93)" fill="#cfd8ec"/>
      <path id="Path_231" data-name="Path 231" d="M423.155,255.726l-3.112-1.484,1.483-3.1,3.11,1.475-1.48,3.112" transform="translate(-373.531 -234.783)" fill="#cfd8ec"/>
      <path id="Path_232" data-name="Path 232" d="M423.734,325.495l1.664,3.011-3.023,1.659-1.663-3.016,3.022-1.654" transform="translate(-374.066 -294.234)" fill="#cfd8ec"/>
      <path id="Path_233" data-name="Path 233" d="M412.44,306.761l1.333,2.421-2.421,1.33L410.02,308.1l2.42-1.336" transform="translate(-365.517 -279.255)" fill="#cfd8ec"/>
      <path id="Path_234" data-name="Path 234" d="M399.436,246.475l1.182-2.49,2.5,1.179-1.188,2.49-2.5-1.179" transform="translate(-357.055 -229.063)" fill="#cfd8ec"/>
      <path id="Path_235" data-name="Path 235" d="M412.147,278.326l-2.5-1.187,1.182-2.489,2.5,1.178-1.185,2.5" transform="translate(-365.222 -253.581)" fill="#cfd8ec"/>
      <path id="Path_236" data-name="Path 236" d="M389.555,282.9l-.92,1.938-1.949-.912.925-1.936,1.944.911" transform="translate(-346.861 -259.45)" fill="#cfd8ec"/>
      <path id="Path_237" data-name="Path 237" d="M394.605,267.24l.923-1.943,1.944.922-.919,1.928-1.948-.907" transform="translate(-353.192 -246.103)" fill="#cfd8ec"/>
      <path id="Path_238" data-name="Path 238" d="M387.155,309.759l-1.039-1.88,1.878-1.035,1.049,1.877-1.888,1.038" transform="translate(-346.405 -279.321)" fill="#cfd8ec"/>
      <path id="Path_239" data-name="Path 239" d="M397.1,320.492l1.028,1.873-1.876,1.048-1.039-1.884,1.887-1.037" transform="translate(-353.677 -290.234)" fill="#cfd8ec"/>
      <path id="Path_240" data-name="Path 240" d="M400.461,293.584l1.937.923-.917,1.937-1.946-.918.927-1.943" transform="translate(-357.133 -268.72)" fill="#cfd8ec"/>
      <path id="Path_241" data-name="Path 241" d="M380.333,297.958l-1.361-.661.645-1.341,1.37.632-.654,1.37" transform="translate(-340.693 -270.616)" fill="#cfd8ec"/>
      <path id="Path_242" data-name="Path 242" d="M377.057,275.113l1.37.649-.651,1.362-1.357-.646.638-1.366" transform="translate(-338.652 -253.951)" fill="#cfd8ec"/>
      <path id="Path_243" data-name="Path 243" d="M377.686,317.006l.729,1.323-1.311.726-.737-1.311,1.318-.738" transform="translate(-338.611 -287.446)" fill="#cfd8ec"/>
      <path id="Path_244" data-name="Path 244" d="M237.142,391.577l3.389-.681.669,3.366-3.366.685-.691-3.37" transform="translate(-227.295 -346.524)" fill="#cfd8ec"/>
      <path id="Path_245" data-name="Path 245" d="M193.629,334.97l-3.141-1.425,1.43-3.131,3.133,1.425-1.423,3.131" transform="translate(-189.993 -298.167)" fill="#cfd8ec"/>
      <path id="Path_246" data-name="Path 246" d="M192.724,258.558l-3,1.706-1.708-2.989,2.993-1.707,1.711,2.99" transform="translate(-188.02 -238.324)" fill="#cfd8ec"/>
      <path id="Path_247" data-name="Path 247" d="M218.3,345.376l-2.513-1.145,1.146-2.509,2.512,1.145-1.145,2.509" transform="translate(-210.222 -307.208)" fill="#cfd8ec"/>
      <path id="Path_248" data-name="Path 248" d="M239.872,371.006l-2.708.533-.544-2.692,2.7-.548.553,2.707" transform="translate(-226.877 -328.457)" fill="#cfd8ec"/>
      <path id="Path_249" data-name="Path 249" d="M207.587,314.911l-2.518-1.141,1.138-2.506,2.519,1.127-1.14,2.52" transform="translate(-201.651 -282.856)" fill="#cfd8ec"/>
      <path id="Path_250" data-name="Path 250" d="M203.69,280.068l2.4-1.368,1.378,2.393-2.4,1.369-1.379-2.394" transform="translate(-200.549 -256.819)" fill="#cfd8ec"/>
      <path id="Path_251" data-name="Path 251" d="M226.3,327.216l-1.956-.9.888-1.946,1.956.883-.887,1.959" transform="translate(-217.066 -293.338)" fill="#cfd8ec"/>
      <path id="Path_252" data-name="Path 252" d="M257.782,353.039l-2.1.422-.424-2.1,2.1-.43.43,2.106" transform="translate(-241.777 -314.572)" fill="#cfd8ec"/>
      <path id="Path_253" data-name="Path 253" d="M239.853,331.829l.883-1.95,1.961.884-.892,1.955-1.953-.889" transform="translate(-229.462 -297.739)" fill="#cfd8ec"/>
      <path id="Path_254" data-name="Path 254" d="M237.461,350.715l.89-1.958,1.954.895-.887,1.948-1.957-.885" transform="translate(-227.55 -312.832)" fill="#cfd8ec"/>
      <path id="Path_255" data-name="Path 255" d="M232.868,307.581l1.953.888-.887,1.951-1.96-.888.893-1.951" transform="translate(-223.164 -279.911)" fill="#cfd8ec"/>
      <path id="Path_256" data-name="Path 256" d="M223.552,271.8l-1.067-1.87,1.869-1.06,1.063,1.854-1.865,1.076" transform="translate(-215.576 -248.957)" fill="#cfd8ec"/>
      <path id="Path_257" data-name="Path 257" d="M234.741,284.209l-1.87,1.065-1.064-1.857,1.864-1.076,1.07,1.868" transform="translate(-223.029 -259.73)" fill="#cfd8ec"/>
      <path id="Path_258" data-name="Path 258" d="M220.929,298.974l-1.957-.9.894-1.949,1.949.892-.886,1.958" transform="translate(-212.767 -270.75)" fill="#cfd8ec"/>
      <path id="Path_259" data-name="Path 259" d="M260.982,369.07l.4,2.077-2.081.447-.446-2.109,2.122-.414" transform="translate(-244.659 -329.073)" fill="#cfd8ec"/>
      <path id="Path_260" data-name="Path 260" d="M243.744,299.017l.629-1.374,1.37.628-.622,1.367-1.377-.621" transform="translate(-232.573 -271.965)" fill="#cfd8ec"/>
      <path id="Path_261" data-name="Path 261" d="M272.759,354.352l-.3-1.467,1.472-.306.305,1.472-1.479.3" transform="translate(-255.534 -315.888)" fill="#cfd8ec"/>
      <path id="Path_262" data-name="Path 262" d="M248.685,319.048l-.628,1.363-1.376-.621.628-1.364,1.376.621" transform="translate(-234.922 -288.582)" fill="#cfd8ec"/>
      <path id="Path_263" data-name="Path 263" d="M258.264,339.2c-.1-.517-.185-.967-.28-1.467l1.449-.314.317,1.48-1.485.3" transform="translate(-243.959 -303.767)" fill="#cfd8ec"/>
      <path id="Path_277" data-name="Path 277" d="M236.04,196.538l-.374,3.421-3.422-.372.366-3.409,3.43.36" transform="translate(-223.379 -190.84)" fill="#cfd8ec"/>
      <path id="Path_278" data-name="Path 278" d="M380.455,192.656l.621,3.376-3.384.637-.624-3.384,3.387-.629" transform="translate(-339.171 -188.024)" fill="#cfd8ec"/>
      <path id="Path_279" data-name="Path 279" d="M306.87,174.415l-2.529-2.346,2.348-2.52,2.525,2.342-2.344,2.524" transform="translate(-281.023 -169.549)" fill="#cfd8ec"/>
      <path id="Path_280" data-name="Path 280" d="M357.645,200.354l.505,2.711-2.71.5-.515-2.7,2.72-.51" transform="translate(-321.467 -194.179)" fill="#cfd8ec"/>
      <path id="Path_281" data-name="Path 281" d="M235.494,225.752l-2.75-.3c.1-.924.194-1.784.3-2.732l2.741.286-.288,2.746" transform="translate(-223.778 -212.062)" fill="#cfd8ec"/>
      <path id="Path_282" data-name="Path 282" d="M258.37,205.679l.295-2.739,2.743.288-.29,2.736-2.749-.285" transform="translate(-244.267 -196.246)" fill="#cfd8ec"/>
      <path id="Path_283" data-name="Path 283" d="M290.836,191.261l1.921-1.705,1.67,1.924-1.96,1.7-1.631-1.915" transform="translate(-270.225 -185.545)" fill="#cfd8ec"/>
      <path id="Path_284" data-name="Path 284" d="M326.018,191.3l-1.916,1.662-1.882-1.8,2.059-1.911,1.739,2.047" transform="translate(-295.318 -185.305)" fill="#cfd8ec"/>
      <path id="Path_285" data-name="Path 285" d="M297.161,216.266l1.29,1.418-1.493,1.332-1.424-1.356,1.627-1.393" transform="translate(-273.981 -206.901)" fill="#cfd8ec"/>
      <path id="Path_286" data-name="Path 286" d="M257.393,224.766l-.223,2.141-2.126-.217.2-2.117,2.146.193" transform="translate(-241.608 -213.543)" fill="#cfd8ec"/>
      <path id="Path_287" data-name="Path 287" d="M362.876,224.32l-.393-2.107,2.106-.391.4,2.1-2.113.4" transform="translate(-327.51 -211.344)" fill="#cfd8ec"/>
      <path id="Path_288" data-name="Path 288" d="M346.6,226.512l2.122-.393.377,2.1-2.1.385-.4-2.1" transform="translate(-314.814 -214.779)" fill="#cfd8ec"/>
      <path id="Path_289" data-name="Path 289" d="M282.426,210.687c-.068.719-.131,1.385-.2,2.135l-2.145-.22c.076-.714.147-1.379.227-2.123l2.12.208" transform="translate(-261.625 -202.274)" fill="#cfd8ec"/>
      <path id="Path_290" data-name="Path 290" d="M321.451,218.372l1.638-1.4,1.455,1.384-1.691,1.353-1.4-1.333" transform="translate(-294.703 -207.461)" fill="#cfd8ec"/>
      <path id="Path_291" data-name="Path 291" d="M273.609,226.451l2.143.213c-.082.735-.156,1.4-.238,2.135l-2.119-.229c.072-.711.14-1.375.215-2.119" transform="translate(-256.28 -215.044)" fill="#cfd8ec"/>
      <path id="Path_292" data-name="Path 292" d="M256.75,243.211l-2.129-.222c.074-.708.147-1.39.225-2.132l2.127.232-.223,2.122" transform="translate(-241.27 -226.562)" fill="#cfd8ec"/>
      <path id="Path_293" data-name="Path 293" d="M311.408,205.218l-1.6,1.447-1.478-1.4,1.479-1.552,1.595,1.508" transform="translate(-284.216 -196.862)" fill="#cfd8ec"/>
      <path id="Path_294" data-name="Path 294" d="M336.089,209.418c.538-.46,1.009-.863,1.48-1.263a2.362,2.362,0,0,1,.233-.144l1.37,1.568-1.389,1.459-1.7-1.621" transform="translate(-306.407 -200.301)" fill="#cfd8ec"/>
      <path id="Path_295" data-name="Path 295" d="M272.319,244.529l-1.483-.176c.043-.492.085-.962.131-1.477l1.5.146-.146,1.507" transform="translate(-254.234 -228.177)" fill="#cfd8ec"/>
      <path id="Path_296" data-name="Path 296" d="M352.327,242.1l1.491-.267.263,1.457-1.455.3-.3-1.489" transform="translate(-319.39 -227.341)" fill="#cfd8ec"/>
      <path id="Path_297" data-name="Path 297" d="M289.532,235.087c.061-.529.111-.965.172-1.492l1.484.136c-.049.507-.093.957-.143,1.477l-1.513-.121" transform="translate(-269.183 -220.756)" fill="#cfd8ec"/>
      <path id="Path_298" data-name="Path 298" d="M334.144,233.356l-1.1,1.017-1.094-1.021,1.194-.942,1,.947" transform="translate(-303.096 -219.808)" fill="#cfd8ec"/>
      <path id="Path_299" data-name="Path 299" d="M312.8,228.091l.953.952-1.033,1.087-1.066-1.011,1.145-1.029" transform="translate(-286.872 -216.355)" fill="#cfd8ec"/>
      <path id="Path_300" data-name="Path 300" d="M316.206,260.154v.958a2.24,2.24,0,0,0-2.2,1.944v-2.9Z" transform="translate(-288.753 -241.991)" fill="#d6b05a" fill-rule="evenodd"/>
      <path id="Path_301" data-name="Path 301" d="M277.564,277.878a5.272,5.272,0,0,1-4.957-5.246v-12.48h2.547a3.672,3.672,0,0,1,3.661,3.661v8.449h-4v.37a3.055,3.055,0,0,0,2.747,3.03Zm-2.716-15.638v7.841h1.726v-6.256a1.594,1.594,0,0,0-1.584-1.584Z" transform="translate(-255.65 -241.989)" fill="#d6b05a" fill-rule="evenodd"/>
      <path id="Path_302" data-name="Path 302" d="M304.909,261.856v8.034h.013v.185h2.027v-9.924H309.5a3.672,3.672,0,0,1,3.661,3.661v2.736h-2.234v-2.736a1.615,1.615,0,0,0-1.6-1.6h-.143v7.867h1.922a2.054,2.054,0,0,1,2.041,2.042v.182h-8.225v.333a5.271,5.271,0,0,1-5.043,5.25v-2.213a3.055,3.055,0,0,0,2.833-3.037v-8.758a2.03,2.03,0,0,1,2.017-2.017Z" transform="translate(-277.455 -241.989)" fill="#d6b05a" fill-rule="evenodd"/>
    </g>
  </g>
  <g id="Group_66842" data-name="Group 66842" transform="translate(139.26 -2)">
    <path id="Path_264" data-name="Path 264" d="M383.245,392.316l-3.418-.415.418-3.413,3.421.413-.421,3.415" transform="translate(-341.377 -344.599)" fill="#d6b05a"/>
    <path id="Path_265" data-name="Path 265" d="M311.562,412.662l-2.348,2.522-2.523-2.338,2.338-2.527,2.533,2.343" transform="translate(-282.901 -362.054)" fill="#d6b05a"/>
    <path id="Path_266" data-name="Path 266" d="M292.556,396.343l1.883-2.014,2.031,1.868-1.88,2.027-2.035-1.881" transform="translate(-271.6 -349.269)" fill="#d6b05a"/>
    <path id="Path_267" data-name="Path 267" d="M328.86,395.648l-1.877,2.022-2.032-1.88,1.883-2.019,2.026,1.877" transform="translate(-297.501 -348.823)" fill="#d6b05a"/>
    <path id="Path_268" data-name="Path 268" d="M360.3,388.22l-2.745-.332c.116-.921.225-1.792.343-2.73l2.735.328c-.111.907-.217,1.78-.333,2.734" transform="translate(-323.567 -341.936)" fill="#d6b05a"/>
    <path id="Path_269" data-name="Path 269" d="M322.3,370.68l1.566,1.466-1.459,1.569-1.582-1.46,1.475-1.575" transform="translate(-294.205 -330.361)" fill="#d6b05a"/>
    <path id="Path_270" data-name="Path 270" d="M341.555,383.147l-2.123-.255.233-2.118,2.132.236c-.081.712-.156,1.375-.241,2.136" transform="translate(-309.08 -338.431)" fill="#d6b05a"/>
    <path id="Path_271" data-name="Path 271" d="M313.76,385.051l-1.466,1.569-1.578-1.456,1.464-1.582,1.579,1.469" transform="translate(-286.121 -340.676)" fill="#d6b05a"/>
    <path id="Path_272" data-name="Path 272" d="M364.676,369.3l.274-2.113,2.123.239-.26,2.13-2.137-.256" transform="translate(-329.263 -327.57)" fill="#d6b05a"/>
    <path id="Path_273" data-name="Path 273" d="M346.674,364.792l2.131.277c-.082.7-.161,1.362-.249,2.108l-2.123-.24c.081-.721.156-1.389.241-2.146" transform="translate(-314.677 -325.653)" fill="#d6b05a"/>
    <path id="Path_274" data-name="Path 274" d="M333.949,360.967l1.483.207-.174,1.472-1.5-.171.193-1.509" transform="translate(-304.541 -322.595)" fill="#d6b05a"/>
    <path id="Path_275" data-name="Path 275" d="M354.477,352.24c-.064.532-.119.989-.18,1.5l-1.48-.189c.057-.5.108-.96.167-1.485l1.493.176" transform="translate(-319.781 -315.477)" fill="#d6b05a"/>
    <path id="Path_276" data-name="Path 276" d="M313.846,365.2l-1.017,1.109-1.117-1.017,1.027-1.108,1.107,1.016" transform="translate(-286.916 -325.169)" fill="#d6b05a"/>
  </g>
</svg>
