<svg xmlns="http://www.w3.org/2000/svg" xmlns:xlink="http://www.w3.org/1999/xlink" width="165.044" height="172.933" viewBox="0 0 165.044 172.933">
  <defs>
    <clipPath id="clip-path">
      <path id="Path_458" data-name="Path 458" d="M38.119,0,134.68,62.578s-20.41,60.713-61.853,47.037S-3.634,73.146.3,58.848,38.119,0,38.119,0Z" transform="translate(0 0)" fill="none" stroke="#707070" stroke-width="1"/>
    </clipPath>
  </defs>
  <g id="Mask_Group_5" data-name="Mask Group 5" transform="translate(69.365 172.933) rotate(-121)" clip-path="url(#clip-path)">
    <g id="Group_66739" data-name="Group 66739" transform="matrix(0.914, -0.407, 0.407, 0.914, 8.768, 10.747)">
      <g id="Group_66738" data-name="Group 66738" transform="translate(0)">
        <path id="Path_388" data-name="Path 388" d="M0,4.767,4.774,7.374,7.394,2.621,2.625,0,0,4.767" transform="translate(83.757 30.885)" fill="rgba(63,99,182,0.16)"/>
        <path id="Path_389" data-name="Path 389" d="M6.125,0,0,2.921,2.918,9.029l6.121-2.9L6.125,0" transform="translate(91.548 63.353)" fill="rgba(63,99,182,0.16)"/>
        <path id="Path_390" data-name="Path 390" d="M5.948,9.192,9.222,3.265,3.272,0,0,5.936,5.948,9.192" transform="translate(91.812 33.852)" fill="rgba(63,99,182,0.16)"/>
        <path id="Path_391" data-name="Path 391" d="M4.764,7.383,7.387,2.618,2.622,0,0,4.754l4.764,2.63" transform="translate(87.593 43.052)" fill="rgba(63,99,182,0.16)"/>
        <path id="Path_392" data-name="Path 392" d="M0,2.32l2.327,4.9L7.252,4.9,4.914,0,0,2.32" transform="translate(83.417 67.983)" fill="rgba(63,99,182,0.16)"/>
        <path id="Path_393" data-name="Path 393" d="M4.913,0,0,2.337l2.326,4.9L7.244,4.916,4.913,0" transform="translate(87.447 55.871)" fill="rgba(63,99,182,0.16)"/>
        <path id="Path_394" data-name="Path 394" d="M5.647,3.813,3.836,0,0,1.8,1.821,5.606,5.647,3.813" transform="translate(78.386 54.603)" fill="rgba(63,99,182,0.16)"/>
        <path id="Path_395" data-name="Path 395" d="M0,1.786,1.816,5.611,5.643,3.8,3.834,0,0,1.786" transform="translate(81.511 61.185)" fill="rgba(63,99,182,0.16)"/>
        <path id="Path_396" data-name="Path 396" d="M2.045,0,0,3.7,3.7,5.737,5.761,2.043,2.045,0" transform="translate(78.161 44.665)" fill="rgba(63,99,182,0.16)"/>
        <path id="Path_397" data-name="Path 397" d="M3.714,5.75,5.738,2.063,2.046,0,0,3.708,3.714,5.75" transform="translate(81.75 39.268)" fill="rgba(63,99,182,0.16)"/>
        <path id="Path_398" data-name="Path 398" d="M1.824,5.63,5.636,3.813,3.83,0,0,1.806,1.824,5.63" transform="translate(83.456 50.005)" fill="rgba(63,99,182,0.16)"/>
        <path id="Path_399" data-name="Path 399" d="M2.679,0,0,1.3l1.269,2.64L3.965,2.7,2.679,0" transform="translate(75.343 50.758)" fill="rgba(63,99,182,0.16)"/>
        <path id="Path_400" data-name="Path 400" d="M1.256,3.959l2.7-1.277L2.671,0,0,1.271,1.256,3.959" transform="translate(74.335 58.964)" fill="rgba(63,99,182,0.16)"/>
        <path id="Path_401" data-name="Path 401" d="M2.6,4.033l1.436-2.6L1.451,0,0,2.58,2.6,4.033" transform="translate(74.315 42.36)" fill="rgba(63,99,182,0.16)"/>
        <path id="Path_402" data-name="Path 402" d="M0,6.634l6.67,1.34c.451-2.267.871-4.386,1.316-6.626L1.361,0C.915,2.176.479,4.3,0,6.634" transform="translate(19.382 9.265)" fill="rgba(63,99,182,0.16)"/>
        <path id="Path_403" data-name="Path 403" d="M6.182,0,0,2.8,2.815,8.967l6.167-2.8L6.182,0" transform="translate(0.974 32.136)" fill="rgba(63,99,182,0.16)"/>
        <path id="Path_404" data-name="Path 404" d="M9.258,3.358,3.361,0,0,5.883,5.89,9.243,9.258,3.358" transform="translate(0 61.391)" fill="rgba(63,99,182,0.16)"/>
        <path id="Path_405" data-name="Path 405" d="M4.947,0,0,2.254,2.255,7.193,7.2,4.939,4.947,0" transform="translate(10.957 29.448)" fill="rgba(63,99,182,0.16)"/>
        <path id="Path_406" data-name="Path 406" d="M6.4,1.048,1.072,0,0,5.3,5.313,6.376c.358-1.752.705-3.45,1.089-5.328" transform="translate(19.175 19.779)" fill="rgba(63,99,182,0.16)"/>
        <path id="Path_407" data-name="Path 407" d="M4.955,0,0,2.245,2.24,7.177,7.2,4.959,4.955,0" transform="translate(6.727 41.481)" fill="rgba(63,99,182,0.16)"/>
        <path id="Path_408" data-name="Path 408" d="M0,4.712,4.727,7.4l2.712-4.71L2.715,0,0,4.712" transform="translate(6.183 54.103)" fill="rgba(63,99,182,0.16)"/>
        <path id="Path_409" data-name="Path 409" d="M3.85,0,0,1.762l1.747,3.83L5.6,3.855,3.85,0" transform="translate(14.334 37.893)" fill="rgba(63,99,182,0.16)"/>
        <path id="Path_410" data-name="Path 410" d="M4.974.83.835,0,0,4.128l4.129.846L4.974.83" transform="translate(26.528 28.032)" fill="rgba(63,99,182,0.16)"/>
        <path id="Path_411" data-name="Path 411" d="M0,1.749,1.739,5.588,5.6,3.848,3.844,0,0,1.749" transform="translate(20.451 35.726)" fill="rgba(63,99,182,0.16)"/>
        <path id="Path_412" data-name="Path 412" d="M0,1.741,1.751,5.595,5.6,3.834C5,2.517,4.448,1.312,3.851,0L0,1.741" transform="translate(19.508 28.27)" fill="rgba(63,99,182,0.16)"/>
        <path id="Path_413" data-name="Path 413" d="M1.759,5.589,5.6,3.841,3.857,0,0,1.749l1.759,3.84" transform="translate(17.343 44.523)" fill="rgba(63,99,182,0.16)"/>
        <path id="Path_414" data-name="Path 414" d="M2.1,0,0,3.68,3.678,5.768,5.771,2.118,2.1,0" transform="translate(13.599 59.62)" fill="rgba(63,99,182,0.16)"/>
        <path id="Path_415" data-name="Path 415" d="M5.776,2.1,2.094,0,0,3.655,3.669,5.773,5.776,2.1" transform="translate(17.277 54.297)" fill="rgba(63,99,182,0.16)"/>
        <path id="Path_416" data-name="Path 416" d="M3.852,0,0,1.774,1.759,5.61,5.6,3.854,3.852,0" transform="translate(12.213 49.023)" fill="rgba(63,99,182,0.16)"/>
        <path id="Path_417" data-name="Path 417" d="M4.177,4.967l.8-4.087L.878,0,0,4.151l4.177.816" transform="translate(27.951 20.884)" fill="rgba(63,99,182,0.16)"/>
        <path id="Path_418" data-name="Path 418" d="M0,1.222,1.237,3.927l2.7-1.237L2.711,0,0,1.222" transform="translate(21.987 50.106)" fill="rgba(63,99,182,0.16)"/>
        <path id="Path_419" data-name="Path 419" d="M.587,0,0,2.888l2.9.6.6-2.9L.587,0" transform="translate(33.317 28.868)" fill="rgba(63,99,182,0.16)"/>
        <path id="Path_420" data-name="Path 420" d="M3.944,2.683,2.709,0,0,1.222,1.236,3.906,3.944,2.683" transform="translate(23.145 41.927)" fill="rgba(63,99,182,0.16)"/>
        <path id="Path_421" data-name="Path 421" d="M.552,0C.357,1.018.188,1.9,0,2.887L2.851,3.5c.206-.962.4-1.879.623-2.913L.552,0" transform="translate(27.605 34.835)" fill="rgba(63,99,182,0.16)"/>
        <g id="Group_66737" data-name="Group 66737" transform="translate(41.246 0)">
          <path id="Path_422" data-name="Path 422" d="M6.727,0,0,.817.823,7.534l6.734-.813C7.276,4.452,7.007,2.275,6.727,0" transform="translate(34.434 10.655)" fill="rgba(63,99,182,0.16)"/>
          <path id="Path_423" data-name="Path 423" d="M9.589,4.964,4.966,0,0,4.6,4.6,9.575,9.589,4.964" transform="translate(5.577 0)" fill="rgba(63,99,182,0.16)"/>
          <path id="Path_424" data-name="Path 424" d="M0,3.7,3.707,7.667l4-3.678L4,0,0,3.7" transform="translate(0 8.218)" fill="rgba(63,99,182,0.16)"/>
          <path id="Path_425" data-name="Path 425" d="M7.693,3.98,4,0,0,3.7,3.706,7.674,7.693,3.98" transform="translate(12.782 8.43)" fill="rgba(63,99,182,0.16)"/>
          <path id="Path_426" data-name="Path 426" d="M5.4,0,0,.653C.228,2.465.443,4.181.676,6.026L6.058,5.38C5.84,3.595,5.632,1.878,5.4,0" transform="translate(25.645 13.476)" fill="rgba(63,99,182,0.16)"/>
          <path id="Path_427" data-name="Path 427" d="M2.9,5.974,5.986,3.088,3.115,0,0,2.873l2.9,3.1" transform="translate(11.155 19.242)" fill="rgba(63,99,182,0.16)"/>
          <path id="Path_428" data-name="Path 428" d="M4.178,0,0,.5C.152,1.884.3,3.188.458,4.67l4.2-.465C4.495,2.8,4.347,1.5,4.178,0" transform="translate(18.496 16.563)" fill="rgba(63,99,182,0.16)"/>
          <path id="Path_429" data-name="Path 429" d="M5.99,3.088,3.106,0,0,2.866,2.882,5.979,5.99,3.088" transform="translate(7.166 14.146)" fill="rgba(63,99,182,0.16)"/>
          <path id="Path_430" data-name="Path 430" d="M0,.5.54,4.662l4.179-.47C4.547,2.784,4.387,1.472,4.207,0L0,.5" transform="translate(28.456 21.931)" fill="rgba(63,99,182,0.16)"/>
          <path id="Path_431" data-name="Path 431" d="M.474,4.7l4.195-.546C4.506,2.779,4.352,1.468,4.178,0L0,.472C.159,1.891.307,3.205.474,4.7" transform="translate(21.258 22.843)" fill="rgba(63,99,182,0.16)"/>
          <path id="Path_432" data-name="Path 432" d="M.379,3.306,3.3,2.9c-.115-.971-.22-1.864-.342-2.9L0,.336C.131,1.364.249,2.29.379,3.306" transform="translate(16.256 25.742)" fill="rgba(63,99,182,0.16)"/>
          <path id="Path_433" data-name="Path 433" d="M3.267,2.949C3.141,1.9,3.033,1,2.912,0L0,.373C.112,1.364.213,2.261.329,3.3l2.938-.347" transform="translate(23.777 29.264)" fill="rgba(63,99,182,0.16)"/>
          <path id="Path_434" data-name="Path 434" d="M4.2,2.182,2.2,0,0,2l2.021,2.18,2.179-2" transform="translate(7.558 23.596)" fill="rgba(63,99,182,0.16)"/>
        </g>
        <path id="Path_435" data-name="Path 435" d="M7.471,6.734C7.215,4.395,6.983,2.268,6.735,0L0,.732l.721,6.71,6.75-.708" transform="translate(17.449 86.626)" fill="rgba(63,99,182,0.16)"/>
        <path id="Path_436" data-name="Path 436" d="M6.666,7.9c.414-2.247.8-4.344,1.223-6.645L1.228,0C.818,2.221.421,4.376,0,6.661L6.666,7.9" transform="translate(74.591 87.559)" fill="rgba(63,99,182,0.16)"/>
        <path id="Path_437" data-name="Path 437" d="M4.978,0,0,4.617,4.621,9.578,9.591,4.968,4.978,0" transform="translate(45.896 94.997)" fill="rgba(63,99,182,0.16)"/>
        <path id="Path_438" data-name="Path 438" d="M5.354,6.328,6.349.991,1.014,0,0,5.323l5.354,1" transform="translate(65.855 86.092)" fill="rgba(63,99,182,0.16)"/>
        <path id="Path_439" data-name="Path 439" d="M5.412,0,0,.59C.2,2.409.382,4.1.585,5.967L5.979,5.4c-.191-1.817-.372-3.54-.567-5.4" transform="translate(17.646 77.628)" fill="rgba(63,99,182,0.16)"/>
        <path id="Path_440" data-name="Path 440" d="M0,.561C.2,2.4.38,4.091.58,5.952l5.4-.567L5.41,0,0,.561" transform="translate(27.758 85.448)" fill="rgba(63,99,182,0.16)"/>
        <path id="Path_441" data-name="Path 441" d="M0,3.769,3.781,7.126,7.068,3.34,3.209,0,0,3.769" transform="translate(40.567 89.554)" fill="rgba(63,99,182,0.16)"/>
        <path id="Path_442" data-name="Path 442" d="M7.476,3.271,3.705,0,0,3.539,4.053,7.3,7.476,3.271" transform="translate(52.95 89.499)" fill="rgba(63,99,182,0.16)"/>
        <path id="Path_443" data-name="Path 443" d="M3.2,5.412,5.742,2.621,2.8,0,0,2.67,3.2,5.412" transform="translate(42.421 80.73)" fill="rgba(63,99,182,0.16)"/>
        <path id="Path_444" data-name="Path 444" d="M4.623,4.214C4.472,2.766,4.336,1.454,4.184,0L0,.428C.131,1.794.255,3.1.4,4.595l4.224-.381" transform="translate(26.445 78.269)" fill="rgba(63,99,182,0.16)"/>
        <path id="Path_445" data-name="Path 445" d="M.774,0C.506,1.437.263,2.739,0,4.146l4.146.769c.264-1.383.511-2.677.787-4.131L.774,0" transform="translate(68.837 79.034)" fill="rgba(63,99,182,0.16)"/>
        <path id="Path_446" data-name="Path 446" d="M0,4.127,4.177,4.9c.252-1.4.485-2.707.743-4.143L.8,0C.524,1.41.274,2.706,0,4.127" transform="translate(62.571 77.353)" fill="rgba(63,99,182,0.16)"/>
        <path id="Path_447" data-name="Path 447" d="M4.618,4.2c-.134-1.416-.257-2.727-.4-4.2L0,.434c.15,1.4.29,2.714.446,4.178L4.618,4.2" transform="translate(36.324 83.813)" fill="rgba(63,99,182,0.16)"/>
        <path id="Path_448" data-name="Path 448" d="M0,2.623,3.224,5.389,6.089,2.664,2.76,0,0,2.623" transform="translate(52.647 80.476)" fill="rgba(63,99,182,0.16)"/>
        <path id="Path_449" data-name="Path 449" d="M.423,4.622,4.64,4.2C4.479,2.756,4.332,1.439,4.172,0L0,.451c.142,1.4.275,2.707.423,4.171" transform="translate(33.685 77.501)" fill="rgba(63,99,182,0.16)"/>
        <path id="Path_450" data-name="Path 450" d="M4.19,0,0,.438c.146,1.393.288,2.735.442,4.2l4.186-.457C4.481,2.775,4.344,1.466,4.19,0" transform="translate(26.278 71.806)" fill="rgba(63,99,182,0.16)"/>
        <path id="Path_451" data-name="Path 451" d="M6.051,2.848,2.91,0,0,2.763,2.912,5.817,6.051,2.848" transform="translate(47.471 85.279)" fill="rgba(63,99,182,0.16)"/>
        <path id="Path_452" data-name="Path 452" d="M0,3.191c1.06.905,1.985,1.7,2.914,2.486a4.655,4.655,0,0,0,.459.283l2.7-3.087L3.337,0,0,3.191" transform="translate(58.423 83.439)" fill="rgba(63,99,182,0.16)"/>
        <path id="Path_453" data-name="Path 453" d="M2.919,0,0,.346c.086.967.168,1.894.258,2.908l2.948-.287C3.112,2,3.023,1.074,2.919,0" transform="translate(32.676 72.388)" fill="rgba(63,99,182,0.16)"/>
        <path id="Path_454" data-name="Path 454" d="M0,2.931l2.935.526c.174-.964.333-1.844.517-2.868L.588,0C.39.99.206,1.906,0,2.931" transform="translate(64.83 72.598)" fill="rgba(63,99,182,0.16)"/>
        <path id="Path_455" data-name="Path 455" d="M0,.239c.119,1.041.218,1.9.338,2.936l2.922-.269c-.1-1-.183-1.883-.282-2.906L0,.239" transform="translate(40.053 76.129)" fill="rgba(63,99,182,0.16)"/>
        <path id="Path_456" data-name="Path 456" d="M4.322,2,2.153,0,0,2.01,2.351,3.864,4.322,2" transform="translate(56.789 75.908)" fill="rgba(63,99,182,0.16)"/>
        <path id="Path_457" data-name="Path 457" d="M2.254,4.013,4.13,2.139,2.1,0,0,1.989,2.254,4.013" transform="translate(48.782 77.462)" fill="rgba(63,99,182,0.16)"/>
      </g>
    </g>
  </g>
</svg>
