<svg xmlns="http://www.w3.org/2000/svg" width="60.336" height="47.407" viewBox="0 0 60.336 47.407">
  <path id="Message" d="M55.871,5H8.465A6.465,6.465,0,0,0,2,11.465v.862l29.392,15.8a2.155,2.155,0,0,0,1.681,0l29.263-15.8v-.862A6.465,6.465,0,0,0,55.871,5Zm5.775,43.787a6.464,6.464,0,0,0,.69-2.844V17.218L42.727,27.755ZM2,17.218V45.942a6.465,6.465,0,0,0,.69,2.844l18.92-21.031Zm32.991,14.7a6.809,6.809,0,0,1-2.866.646,6.465,6.465,0,0,1-2.672-.582l-3.943-2.155L5.793,51.8a6.465,6.465,0,0,0,2.672.6H55.871a6.464,6.464,0,0,0,2.694-.6L38.8,29.867Z" transform="translate(-2 -5)" fill="#013fcd"/>
</svg>
