<svg xmlns="http://www.w3.org/2000/svg" width="14.072" height="11.429" viewBox="0 0 14.072 11.429">
  <path id="Path_638" data-name="Path 638" d="M1173.192,4024.929a5.775,5.775,0,0,1-1.661.446,2.876,2.876,0,0,0,1.268-1.589,5.691,5.691,0,0,1-1.83.7,2.886,2.886,0,0,0-4.991,1.973,3.229,3.229,0,0,0,.071.661,8.2,8.2,0,0,1-5.946-3.018,2.888,2.888,0,0,0,.892,3.857,2.886,2.886,0,0,1-1.3-.366v.036a2.883,2.883,0,0,0,2.312,2.83,3.027,3.027,0,0,1-.759.1,3.615,3.615,0,0,1-.544-.045,2.888,2.888,0,0,0,2.7,2,5.774,5.774,0,0,1-3.58,1.232,5.968,5.968,0,0,1-.7-.036,8.209,8.209,0,0,0,12.634-6.91c0-.125,0-.25-.009-.375A6.207,6.207,0,0,0,1173.192,4024.929Z" transform="translate(-1159.12 -4023.571)" fill="#3f64b8"/>
</svg>
