<svg xmlns="http://www.w3.org/2000/svg" width="13.715" height="13.714" viewBox="0 0 13.715 13.714">
  <path id="Path_644" data-name="Path 644" d="M1219.862,3954.911c-.009-.045-.018-.134-.018-.143-.009-.143.143-.241.134-.375-.1-.027-.125-.125-.108-.232.018-.152.152-.259.259-.357a.5.5,0,0,0,.108-.429c-.045-.214-.045-.437-.081-.652.009.054.161.036.188.107a2,2,0,0,1,.1-.205c.036-.054.1-.071.152-.116.089-.054.276-.259.384-.134.089.107-.134.223-.018.321.035-.071,0-.178.071-.25.143-.16.241.018.384.063a.757.757,0,0,1,.322.2c-.036-.035.142-.1.16-.107.17-.035.241.063.357.152s.322.152.3.33a1.168,1.168,0,0,1,.214.072c.072.036.17.018.223.071A5.668,5.668,0,0,1,1219.862,3954.911Zm1.455-7.831a.546.546,0,0,1,.384-.107c.1.027.178.063.062.143-.053.036-.134,0-.2.018.08.018.2.054.161.134.232.134-.072.295-.224.277.072.009-.151.143-.151.134-.081.044-.188.044-.25.125-.072.1.026.267-.108.232-.053.116-.258.053-.348.178.1.107-.1.259-.2.125-.089.036-.045.134-.134.188.036.053.045.107-.018.143.018-.009.125.08.152.089a.114.114,0,0,1-.1.08c.044.116-.054.241-.134.313a2.212,2.212,0,0,1-.322.161c-.16.151-.268.375.018.437.009,0,.009.295.018.3.018.107.062.419-.125.3-.089-.044-.143-.294-.17-.393a.467.467,0,0,0-.107-.214c-.116.134-.134.036-.232-.027s-.241-.035-.295-.089c-.134.1-.232.071-.259-.08-.035.071.036.178.027.205-.044.089-.125.071-.2.018-.116-.089-.366.062-.5,0a.868.868,0,0,1,.071.053c-.027.108-.089.045-.143.081s-.116.134-.169.178c.116.224-.009.438,0,.679a.8.8,0,0,0,.285.589.777.777,0,0,0,.429.027c.125-.054.107-.152.152-.259a.231.231,0,0,1,.232-.179c.384-.017.089.295.045.456-.027.116-.036.25-.054.357a.337.337,0,0,0,.134.009c0-.036.027-.08.027-.107.053.089.232.116.285.009.063.107.188.187.206.312s.134.259-.036.259c-.125,0,.018.25.036.295a.311.311,0,0,0,.437.16c0,.072-.026.268-.125.286s-.259-.169-.223-.268a.146.146,0,0,1-.062.081c-.09-.107-.241-.161-.322-.268-.018-.027-.259-.393-.2-.411a.745.745,0,0,1-.491-.1c-.188-.1-.215-.357-.447-.322-.16.027-.2.09-.393.018a3.542,3.542,0,0,1-.357-.2c-.143-.08-.393-.161-.446-.339a2.607,2.607,0,0,0-.116-.447c-.054-.089-.214-.268-.331-.268.108,0-.1-.268-.125-.294-.1-.116-.455-.429-.383-.607.017-.027-.179-.1-.215-.108a2.266,2.266,0,0,0,.09.268c.044.09.1.17.151.259a.994.994,0,0,1,.215.554c-.116.035-.081-.134-.116-.206-.063-.116-.233-.116-.277-.241.018-.009.027-.009.044-.018.009-.151-.214-.276-.178-.383-.125-.1-.125-.286-.214-.411a1.155,1.155,0,0,0-.331-.25c-.044-.027-.366-.438-.25-.464-.178.044-.268-.375-.241-.483,0,0-.018,0-.018-.009.036-.107-.027-.66.116-.669-.1.009-.125-.232-.1-.277s.152.1.161.116a.157.157,0,0,0,.089-.161c-.027-.071-.125-.134-.187-.187-.027-.018-.384-.25-.393-.241a.126.126,0,0,0-.027-.17c-.17.134-.08-.125-.17-.152a.254.254,0,0,1-.107-.071,5.8,5.8,0,0,1,2.1-1.982,1.312,1.312,0,0,1,.2-.009c.161.018.25.152.366.232.018-.045-.018-.116-.045-.161.027-.071.134-.089.2-.107a.539.539,0,0,1,.268.009,2.3,2.3,0,0,0-.179-.223c-.009.009-.036.027-.045.045-.1-.081-.285.026-.375.062a2.21,2.21,0,0,1-.2.107.15.15,0,0,1-.107.009,5.356,5.356,0,0,1,.839-.366c.054.036.107.1.188.161-.054-.045-.054.16-.036.2.1.134.312.045.446.045-.009,0,.393.053.313-.045.062.089.062.223.143.3.08-.081-.036-.17.018-.25.017-.036.178-.081.232-.107.062-.045-.045-.108-.072-.125-.089-.054-.437-.081-.268-.286.063-.072.286-.036.358.009.1.053.2.152.071.241.062.009.357.089.312.2.027-.053.072-.134.143-.134s.1.2.134.241c.125.224.34-.223.375-.205-.16-.062.143-.143.223-.116.063.027.161.241.045.232.1.089.107.286-.071.277-.125-.009-.268-.179-.384-.045-.081.09-.116.223-.2.3a.5.5,0,0,1-.446.1c.062.009-.134.214-.152.25a.521.521,0,0,0-.107.205.98.98,0,0,1-.045.277c.152-.044.232.232.17.241a1.014,1.014,0,0,1,.518.036c.125.045.312.1.366.232.036-.053.2-.027.259-.009.107.054.116.17.143.268.035.134.151.357.3.286.027-.018.223-.107.152-.161s-.152-.223-.08-.312.241-.125.285-.25c.072-.206-.214-.179-.214-.331,0-.089.116-.116.107-.223,0-.089-.134-.268-.027-.33a1.152,1.152,0,0,1,.6.089c.08.053.33.125.348.2h-.045c.072.063.134.2.009.232.081-.017.313.072.152.125.054-.026.1-.009.152-.044s.1-.1.178-.054c.018.009.116-.187.17-.178.08.009.1.125.134.178.036.081.134.107.17.188.062.151.035.294.241.348.062.018.232-.08.223.053a.175.175,0,0,0,.053-.071c.009.125.063.268.215.25a.828.828,0,0,1-.018.2c-.054.081-.188.063-.268.108-.027.009-.241.2-.214.223a.45.45,0,0,0-.456-.1,2.013,2.013,0,0,0-.464.107.574.574,0,0,0-.2.134c-.027.035-.072.2-.116.205C1221.2,3947.232,1221.245,3947.134,1221.317,3947.08Zm-2.447-4.651a6.857,6.857,0,1,0,6.858,6.857A6.859,6.859,0,0,0,1218.87,3942.429Z" transform="translate(-1212.013 -3942.429)" fill="#3f64b8"/>
</svg>
