<svg xmlns="http://www.w3.org/2000/svg" width="16" height="12.572" viewBox="0 0 16 12.572">
  <path id="Path_643" data-name="Path 643" d="M1226.728,3911a1.439,1.439,0,0,0-1.429-1.429h-13.143a1.447,1.447,0,0,0-1.428,1.625,3.477,3.477,0,0,0,1.535,2.25c1.384.965,2.786,1.929,4.17,2.9.58.4,1.562,1.223,2.286,1.223h.017c.724,0,1.706-.821,2.286-1.223,1.384-.973,2.786-1.937,4.179-2.9A3.225,3.225,0,0,0,1226.728,3911Zm0,2.625a5.27,5.27,0,0,1-.893.777c-1.491,1.009-2.991,2.027-4.447,3.08a4.888,4.888,0,0,1-2.652,1.232h-.017a4.888,4.888,0,0,1-2.652-1.232c-1.456-1.062-2.956-2.071-4.438-3.08a4.955,4.955,0,0,1-.9-.777v7.089a1.432,1.432,0,0,0,1.428,1.429H1225.3a1.433,1.433,0,0,0,1.429-1.429Z" transform="translate(-1210.728 -3909.571)" fill="#3f64b8"/>
</svg>
