<svg xmlns="http://www.w3.org/2000/svg" width="27.019" height="27.019" viewBox="0 0 27.019 27.019">
  <path id="Path_497" data-name="Path 497" d="M1217.09,2026.368a13.51,13.51,0,1,0-13.509,13.509A13.513,13.513,0,0,0,1217.09,2026.368Zm-3.94,0a9.569,9.569,0,1,1-9.569-9.57A9.579,9.579,0,0,1,1213.15,2026.368Zm-7.318-6.192a.556.556,0,0,0-.562-.564h-1.126a.556.556,0,0,0-.562.564v6.192h-3.94a.556.556,0,0,0-.564.562v1.126a.556.556,0,0,0,.564.562h5.628a.554.554,0,0,0,.562-.562Z" transform="translate(-1190.071 -2012.857)" fill="#bdccec"/>
</svg>
