<svg xmlns="http://www.w3.org/2000/svg" width="13.714" height="13.714" viewBox="0 0 13.714 13.714">
  <path id="Path_639" data-name="Path 639" d="M1198.442,4024.188a1.768,1.768,0,0,0-1.759-1.759h-10.2a1.767,1.767,0,0,0-1.758,1.759v10.2a1.768,1.768,0,0,0,1.758,1.759h10.2a1.769,1.769,0,0,0,1.759-1.759Zm-1.554,1.857a.617.617,0,0,1-.616.616h-1.553a.617.617,0,0,1-.616-.616v-1.474a.617.617,0,0,1,.616-.616h1.553a.617.617,0,0,1,.616.616Zm-2.535,3.214a2.756,2.756,0,1,1-2.759-2.67A2.715,2.715,0,0,1,1194.353,4029.259Zm2.535,4.759a.542.542,0,0,1-.544.545H1186.8a.542.542,0,0,1-.545-.545v-5.786h1.259a3.911,3.911,0,0,0-.178,1.17,4.265,4.265,0,0,0,8.526,0,3.911,3.911,0,0,0-.178-1.17h1.2Z" transform="translate(-1184.728 -4022.429)" fill="#3f64b8"/>
</svg>
