<svg xmlns="http://www.w3.org/2000/svg" width="13.029" height="13.02" viewBox="0 0 13.029 13.02">
  <path id="Path_645" data-name="Path 645" d="M1215.79,3978.766l.047.031,2.047,2.109-.016.016a1.014,1.014,0,0,1,.328.766,1.04,1.04,0,0,1-.312.765l-1,1a6.091,6.091,0,0,0,1.39,2.031,8.1,8.1,0,0,0,2.047,1.407l1-1a1.132,1.132,0,0,1,1.563,0l.015.031,2.032,2.031a1.115,1.115,0,0,1,0,1.547l-1.578,1.578a1.769,1.769,0,0,1-.821.406,1.707,1.707,0,0,1-.914-.062h-.015a16.261,16.261,0,0,1-5.672-3.625,15.982,15.982,0,0,1-2.453-3.172,14.066,14.066,0,0,1-1.172-2.5v-.016a1.543,1.543,0,0,1-.047-.9,1.525,1.525,0,0,1,.469-.789l-.016-.016,1.578-1.625.031-.015a1.147,1.147,0,0,1,1.469,0Zm-.844.781-1.547,1.578a.569.569,0,0,0-.171.3.561.561,0,0,0,.015.351,13.906,13.906,0,0,0,1.094,2.328,14.833,14.833,0,0,0,2.3,2.985,15.323,15.323,0,0,0,5.3,3.375.748.748,0,0,0,.765-.141l1.563-1.562c.021-.021.031-.034.031-.039s-.01-.019-.031-.039l-2.094-2.094c-.031-.031-.052-.047-.062-.047s-.032.016-.063.047l-1.5,1.5-.7-.328a10.553,10.553,0,0,1-2.141-1.453l-.109-.094a7.768,7.768,0,0,1-1-1.2,9.441,9.441,0,0,1-.594-1.047l-.187-.438-.11-.312.235-.219,1.25-1.25a.109.109,0,0,0,.031-.109l-2.047-2.094a.151.151,0,0,0-.219,0Z" transform="translate(-1212.214 -3978.5)" fill="#3f64b8"/>
</svg>
