<svg xmlns="http://www.w3.org/2000/svg" width="23.779" height="25.609" viewBox="0 0 23.779 25.609">
  <path id="Path_498" data-name="Path 498" d="M1067.065,2017.058a1.842,1.842,0,0,0-1.83-1.828h-1.828v-1.373a2.293,2.293,0,0,0-2.286-2.285h-.915a2.293,2.293,0,0,0-2.286,2.285v1.373h-5.489v-1.373a2.293,2.293,0,0,0-2.286-2.285h-.915a2.292,2.292,0,0,0-2.286,2.285v1.373h-1.828a1.841,1.841,0,0,0-1.83,1.828v18.293a1.842,1.842,0,0,0,1.83,1.83h20.12a1.843,1.843,0,0,0,1.83-1.83Zm-5.488.916a.471.471,0,0,1-.457.457h-.915a.471.471,0,0,1-.458-.457v-4.117a.471.471,0,0,1,.458-.457h.915a.471.471,0,0,1,.457.457Zm-.457,6.859v-4.116h4.115v4.116Zm-5.489,0v-4.116h4.574v4.116Zm5.489,5.488v-4.573h4.115v4.573Zm-10.518-12.346a.471.471,0,0,1-.458.457h-.915a.471.471,0,0,1-.457-.457v-4.117a.471.471,0,0,1,.457-.457h.915a.471.471,0,0,1,.458.457Zm5.029,12.346v-4.573h4.574v4.573Zm5.489,5.031v-4.116h4.115v4.116Zm-10.976-10.518v-4.116h4.574v4.116Zm5.487,10.518v-4.116h4.574v4.116Zm-10.517-10.518v-4.116h4.115v4.116Zm5.029,5.488v-4.573h4.574v4.573Zm-5.029,0v-4.573h4.115v4.573Zm5.029,5.031v-4.116h4.574v4.116Zm-5.029,0v-4.116h4.115v4.116Z" transform="translate(-1043.286 -2011.572)" fill="#bdccec"/>
</svg>
