<svg xmlns="http://www.w3.org/2000/svg" width="16" height="11.429" viewBox="0 0 16 11.429">
  <path id="Path_640" data-name="Path 640" d="M1226.728,4029.286a18.1,18.1,0,0,0-.277-3.875,2.047,2.047,0,0,0-1.732-1.616,80.286,80.286,0,0,0-11.983,0,2.037,2.037,0,0,0-1.723,1.616,17.6,17.6,0,0,0-.285,3.875,18.156,18.156,0,0,0,.276,3.875,2.048,2.048,0,0,0,1.732,1.616,80.637,80.637,0,0,0,11.983,0,2.028,2.028,0,0,0,1.723-1.616A17.534,17.534,0,0,0,1226.728,4029.286Zm-4.572,0a.554.554,0,0,1-.268.482l-4.571,2.857a.523.523,0,0,1-.3.089.608.608,0,0,1-.277-.071.579.579,0,0,1-.294-.5v-5.714a.578.578,0,0,1,.294-.5.565.565,0,0,1,.581.017l4.571,2.858A.553.553,0,0,1,1222.156,4029.286Z" transform="translate(-1210.728 -4023.571)" fill="#3f64b8"/>
</svg>
