<svg xmlns="http://www.w3.org/2000/svg" width="37.937" height="37.941" viewBox="0 0 37.937 37.941">
  <path id="target" d="M98.142,51.2a1.265,1.265,0,0,0-.877.373L94.736,54.1a1.265,1.265,0,0,0-.373.9v4.533l-.692.692a16.358,16.358,0,1,0,3.352,3.925,1.265,1.265,0,1,0-2.156,1.317,13.991,13.991,0,1,1-2.989-3.448l-1.8,1.8a11.306,11.306,0,1,0,3.281,4.209,1.266,1.266,0,1,0-2.3,1.047,8.917,8.917,0,1,1-2.784-3.451l-1.808,1.808A6.328,6.328,0,1,0,89.3,72.7a1.265,1.265,0,1,0-2.52,0A3.834,3.834,0,1,1,84.6,69.282L82.087,71.8a1.267,1.267,0,1,0,1.791,1.794l3.357-3.357a1.265,1.265,0,0,0,.442-.442l3.135-3.135a1.265,1.265,0,0,0,.442-.442l3.27-3.27a1.266,1.266,0,0,0,.165-.166l1.465-1.465h4.538a1.265,1.265,0,0,0,.887-.373l2.532-2.532a1.265,1.265,0,0,0,0-1.783l-2.389-2.391a1.265,1.265,0,0,0-.279-.282l-2.384-2.386a1.265,1.265,0,0,0-.916-.373Zm.02,3.053.741.741L96.892,57V55.518Zm2.529,2.529.739.739-1.26,1.27H98.683Z" transform="translate(-66.542 -51.196)" fill="#f7c553"/>
</svg>
